<svg width="2403" height="1832" viewBox="0 0 2403 1832" fill="none" xmlns="http://www.w3.org/2000/svg">
<path d="M0.707718 0.94368V1830.71M50.7219 0.94368V1830.71M100.736 0.94368V1830.71M150.75 0.94368V1830.71M200.764 0.94368V1830.71M250.779 0.94368V1830.71M300.793 0.94368V1830.71M350.807 0.94368V1830.71M400.821 0.94368V1830.71M450.835 0.94368V1830.71M500.85 0.94368V1830.71M550.864 0.94368V1830.71M600.878 0.94368V1830.71M650.892 0.94368V1830.71M700.906 0.94368V1830.71M750.92 0.94368V1830.71M800.935 0.94368V1830.71M850.949 0.94368V1830.71M900.963 0.94368V1830.71M950.977 0.94368V1830.71M1000.99 0.94368V1830.71M1051.01 0.94368V1830.71M1101.02 0.94368V1830.71M1151.03 0.94368V1830.71M1201.05 0.94368V1830.71M1251.06 0.94368V1830.71M1301.08 0.94368V1830.71M1351.09 0.94368V1830.71M1401.1 0.94368V1830.71M1451.12 0.94368V1830.71M1501.13 0.94368V1830.71M1551.15 0.94368V1830.71M1601.16 0.94368V1830.71M1651.18 0.94368V1830.71M1701.19 0.94368V1830.71M1751.2 0.94368V1830.71M1801.22 0.94368V1830.71M1851.23 0.94368V1830.71M1901.25 0.94368V1830.71M1951.26 0.94368V1830.71M2001.27 0.94368V1830.71M2051.29 0.94368V1830.71M2101.3 0.94368V1830.71M2151.32 0.94368V1830.71M2201.33 0.94368V1830.71M2251.35 0.94368V1830.71M2301.36 0.94368V1830.71M2351.37 0.94368V1830.71M2401.39 0.94368V1830.71M0.471802 1830.47H2401.15M0.471802 1779.64H2401.15M0.471802 1728.82H2401.15M0.471802 1677.99H2401.15M0.471802 1627.16H2401.15M0.471802 1576.34H2401.15M0.471802 1525.51H2401.15M0.471802 1474.68H2401.15M0.471802 1423.86H2401.15M0.471802 1373.03H2401.15M0.471802 1322.2H2401.15M0.471802 1271.38H2401.15M0.471802 1220.55H2401.15M0.471802 1169.72H2401.15M0.471802 1118.9H2401.15M0.471802 1068.07H2401.15M0.471802 1017.24H2401.15M0.471802 966.417H2401.15M0.471802 915.59H2401.15M0.471802 864.763H2401.15M0.471802 813.936H2401.15M0.471802 763.11H2401.15M0.471802 712.283H2401.15M0.471802 661.456H2401.15M0.471802 610.629H2401.15M0.471802 559.802H2401.15M0.471802 508.976H2401.15M0.471802 458.149H2401.15M0.471802 407.322H2401.15M0.471802 356.495H2401.15M0.471802 305.669H2401.15M0.471802 254.842H2401.15M0.471802 204.015H2401.15M0.471802 153.188H2401.15M0.471802 102.361H2401.15M0.471802 51.5346H2401.15M0.471802 0.707764H2401.15" stroke="white" stroke-opacity="0.47" stroke-width="1.4155"/>
</svg>
