<svg version="1.0" xmlns="http://www.w3.org/2000/svg" width="600.000000pt" height="557.000000pt" viewBox="0 0 600.000000 557.000000" preserveAspectRatio="xMidYMid meet" style="width: 396.832px; height: auto;"> <g transform="translate(0.000000,557.000000) scale(0.100000,-0.100000)" fill="#000000" stroke="none"> <path d="M3355 5390 c-107 -30 -203 -50 -234 -50 -16 0 -48 7 -72 16 -61 22 -156 22 -197 1 -18 -10 -61 -44 -96 -76 -51 -46 -84 -65 -162 -96 -98 -38 -174 -86 -174 -108 0 -7 4 -6 10 3 8 13 10 13 10 -2 0 -10 -9 -22 -21 -28 -46 -25 -183 -156 -233 -224 -29 -39 -77 -120 -106 -181 -45 -93 -55 -123 -63 -198 -7 -67 -7 -101 3 -135 7 -26 16 -105 20 -177 10 -178 24 -267 55 -355 50 -142 95 -295 101 -345 10 -81 42 -201 91 -340 60 -171 108 -265 227 -445 58 -88 57 -88 -87 -66 -50 8 -110 17 -132 20 -22 3 -66 10 -98 15 -107 18 -171 -8 -245 -102 -28 -35 -58 -69 -65 -76 -8 -6 -71 -18 -140 -26 -69 -8 -165 -21 -213 -30 -47 -8 -110 -15 -138 -15 -158 0 -307 -97 -377 -245 -25 -52 -29 -71 -29 -150 0 -66 5 -101 19 -131 19 -42 136 -167 204 -217 58 -43 67 -65 68 -148 0 -145 26 -222 103 -306 30 -31 55 -72 72 -118 110 -290 203 -513 249 -599 44 -83 62 -132 95 -261 52 -204 49 -195 66 -195 10 0 13 6 10 18 -3 9 -24 91 -47 182 -34 139 -49 181 -95 265 -44 80 -204 457 -204 480 0 3 -18 51 -40 107 -33 82 -50 111 -90 151 -61 61 -80 116 -86 242 -2 50 -6 103 -10 119 -7 31 -69 106 -88 106 -21 0 -152 133 -173 175 -29 58 -34 97 -23 178 17 120 92 218 211 275 53 25 81 32 164 37 55 4 129 13 165 20 36 7 112 18 170 25 164 17 174 21 230 99 58 78 108 111 171 111 24 0 136 -14 248 -30 125 -19 208 -27 214 -21 11 11 -24 94 -62 141 -36 46 -134 212 -161 273 -40 90 -108 302 -125 387 -32 164 -47 226 -82 325 -72 211 -97 346 -92 500 2 57 -3 93 -15 125 -14 37 -16 61 -10 139 6 87 10 101 66 213 32 66 79 147 104 180 48 61 202 201 255 230 41 22 48 30 24 28 -69 -8 -27 26 78 62 95 32 146 62 212 124 33 30 70 60 83 65 38 15 113 10 181 -11 62 -20 68 -20 145 -5 45 9 107 25 139 36 67 22 154 25 200 5 18 -7 46 -28 62 -46 44 -47 156 -95 239 -103 92 -9 186 -52 222 -104 15 -21 50 -55 77 -77 35 -27 58 -56 79 -100 42 -89 69 -131 111 -172 20 -21 37 -41 37 -46 0 -4 23 -24 50 -44 61 -44 99 -105 107 -172 4 -40 0 -60 -23 -112 l-28 -63 27 -49 c16 -29 27 -63 27 -87 0 -46 -32 -128 -77 -196 -20 -30 -33 -62 -33 -81 0 -17 -14 -59 -32 -93 -34 -66 -96 -121 -160 -143 -18 -6 -53 -28 -78 -49 -56 -46 -76 -99 -85 -228 -4 -52 -16 -123 -27 -159 -10 -35 -25 -96 -33 -135 -8 -40 -27 -103 -44 -142 l-30 -70 74 -6 c141 -12 195 -69 195 -205 0 -62 4 -79 25 -110 30 -44 47 -99 75 -242 11 -59 30 -141 42 -181 23 -82 23 -91 -6 -434 -10 -121 -11 -178 -4 -199 6 -16 8 -55 5 -85 -3 -31 -1 -79 4 -108 8 -43 5 -75 -16 -181 -39 -201 -35 -234 28 -234 34 0 138 -54 175 -91 80 -79 111 -170 120 -347 l7 -133 265 -88 c146 -49 296 -102 333 -119 68 -31 127 -81 127 -108 0 -8 7 -14 15 -14 19 0 19 13 0 50 -34 67 -102 99 -447 215 -135 45 -251 86 -257 89 -6 4 -11 38 -11 77 0 168 -47 313 -131 398 -40 42 -139 95 -189 102 -35 5 -36 37 -10 178 21 106 22 134 16 336 -5 166 -3 257 9 370 19 188 19 248 0 312 -8 28 -26 106 -40 174 -29 144 -59 243 -85 279 -12 17 -19 50 -22 105 -8 142 -67 209 -195 222 -60 7 -58 1 -28 82 9 25 23 79 32 120 8 42 23 101 33 131 10 30 21 100 25 155 4 55 13 114 20 131 18 44 61 82 125 111 86 39 134 84 174 165 20 39 36 83 36 97 0 15 12 43 26 64 41 61 84 172 84 218 0 27 -9 58 -26 87 l-26 44 21 50 c45 109 17 242 -66 305 -84 64 -147 140 -198 238 -37 71 -64 107 -139 182 -108 107 -161 136 -281 154 -100 15 -177 49 -236 104 -34 32 -59 45 -98 54 -64 14 -61 14 -146 -9z"></path> <path d="M3412 5263 c-12 -3 -41 -22 -62 -43 -37 -36 -42 -38 -70 -28 -40 13 -68 5 -107 -32 -18 -16 -37 -30 -43 -30 -8 0 -9 -11 -5 -32 l7 -33 -44 45 c-29 29 -55 46 -74 48 -16 2 -33 9 -38 16 -7 10 -19 7 -53 -17 -30 -20 -41 -32 -33 -37 7 -5 11 -19 8 -34 -3 -14 -1 -26 3 -26 9 0 13 15 10 39 -2 7 2 10 8 7 6 -4 13 4 16 16 4 16 14 24 31 26 13 1 24 -3 24 -8 0 -6 -9 -10 -19 -10 -10 0 -22 -7 -25 -16 -3 -8 -2 -12 4 -9 6 3 10 1 10 -6 0 -8 7 -6 19 5 15 13 20 14 24 4 4 -10 7 -11 18 0 7 6 18 12 23 12 6 0 3 -5 -6 -11 -20 -11 -13 -40 8 -32 8 3 11 9 8 14 -3 5 -1 9 5 9 5 0 14 -7 19 -15 4 -9 21 -17 38 -18 23 -2 30 2 32 21 5 31 74 102 100 102 34 0 32 -13 -4 -40 -38 -28 -41 -35 -18 -44 10 -4 18 0 21 13 3 12 25 26 58 39 53 19 55 19 85 0 18 -10 29 -14 25 -8 -3 5 0 10 8 10 8 0 17 -7 21 -15 3 -8 12 -15 19 -15 8 0 22 -8 31 -19 16 -17 16 -20 1 -35 -9 -9 -20 -16 -25 -16 -4 0 -10 -7 -14 -15 -8 -22 8 -18 38 10 25 23 27 24 45 7 34 -33 86 -54 139 -58 47 -4 52 -2 52 17 0 18 4 20 33 14 38 -9 57 -22 57 -42 0 -19 27 -46 39 -38 6 3 18 -3 28 -14 12 -13 23 -17 32 -12 10 7 -3 25 -53 74 -88 86 -88 109 0 67 51 -25 78 -62 68 -93 -6 -19 -5 -20 10 -8 24 20 20 44 -16 78 -62 58 -124 71 -152 31 -9 -12 -18 -19 -21 -16 -3 3 -27 -5 -53 -17 -47 -23 -47 -23 -84 -4 -21 11 -44 19 -53 19 -9 0 -15 9 -15 23 0 13 -5 28 -12 35 -9 9 -9 15 -1 23 25 25 -24 118 -64 119 -6 0 -17 2 -25 4 -7 2 -23 1 -36 -1z m63 -25 c31 -14 61 -76 45 -92 -7 -7 -14 -4 -23 8 -15 20 -81 38 -94 25 -12 -12 -47 26 -38 40 3 6 17 11 30 11 13 0 27 5 30 10 8 13 18 13 50 -2z"></path> <path d="M3450 5226 c0 -2 7 -7 16 -10 8 -3 12 -2 9 4 -6 10 -25 14 -25 6z"></path> <path d="M2911 5221 c-7 -5 -11 -14 -7 -20 4 -6 2 -9 -6 -6 -8 3 -24 -15 -42 -47 -36 -64 -40 -68 -82 -61 -28 5 -38 1 -63 -26 -27 -29 -48 -91 -37 -110 3 -4 17 -6 30 -4 22 4 24 9 19 34 -5 24 -2 29 21 35 14 3 26 12 26 18 0 7 16 20 37 30 28 14 38 14 44 4 5 -8 11 -3 19 17 8 21 8 31 1 33 -14 5 23 58 54 78 26 17 55 9 56 -15 0 -11 4 -9 12 7 8 19 8 25 -4 33 -18 11 -60 11 -78 0z m-170 -177 c-17 -14 -31 -32 -31 -40 0 -9 -5 -12 -10 -9 -19 12 28 75 56 75 10 0 4 -10 -15 -26z"></path> <path d="M3113 5180 c-23 -10 -32 -30 -12 -30 5 0 7 5 4 10 -3 6 3 10 14 10 11 0 23 5 26 10 7 12 -2 12 -32 0z"></path> <path d="M3065 5170 c3 -5 8 -10 11 -10 2 0 4 5 4 10 0 6 -5 10 -11 10 -5 0 -7 -4 -4 -10z"></path> <path d="M3304 5136 c-3 -9 -10 -13 -15 -10 -5 3 -9 -3 -9 -13 0 -15 2 -15 22 5 12 12 19 24 15 28 -4 4 -9 -1 -13 -10z"></path> <path d="M3365 5122 c6 -4 23 -22 38 -40 15 -19 27 -27 27 -19 0 18 -45 67 -62 67 -8 0 -9 -3 -3 -8z"></path> <path d="M3420 5125 c1 -16 38 -60 45 -53 4 4 -5 19 -19 35 -14 15 -26 23 -26 18z"></path> <path d="M3676 5115 c-3 -8 -1 -15 4 -15 6 0 10 7 10 15 0 8 -2 15 -4 15 -2 0 -6 -7 -10 -15z"></path> <path d="M3177 5100 c-16 -19 -16 -20 2 -20 14 0 19 6 18 20 -1 11 -2 20 -2 20 0 0 -8 -9 -18 -20z"></path> <path d="M3565 5100 c4 -6 11 -8 16 -5 14 9 11 15 -7 15 -8 0 -12 -5 -9 -10z"></path> <path d="M3640 5096 c0 -7 6 -19 14 -25 11 -9 12 -6 8 14 -5 26 -22 35 -22 11z"></path> <path d="M2932 5063 c2 -15 -3 -28 -11 -31 -8 -3 -11 0 -7 7 4 6 2 11 -4 11 -7 0 -10 -6 -7 -12 2 -7 11 -13 20 -13 9 0 22 -6 29 -13 16 -16 25 -15 32 4 4 12 1 14 -14 9 -17 -5 -19 -2 -16 24 2 19 -2 32 -11 35 -10 4 -13 -2 -11 -21z"></path> <path d="M3261 5074 c0 -11 3 -14 6 -6 3 7 2 16 -1 19 -3 4 -6 -2 -5 -13z"></path> <path d="M2650 5055 c-13 -14 -21 -27 -19 -30 3 -2 17 9 31 25 32 36 21 40 -12 5z"></path> <path d="M2970 5071 c0 -6 4 -13 10 -16 6 -3 7 1 4 9 -7 18 -14 21 -14 7z"></path> <path d="M3292 5071 c-8 -5 -12 -16 -10 -25 2 -12 6 -10 15 9 6 14 10 25 10 25 -1 0 -8 -4 -15 -9z"></path> <path d="M3320 5071 c0 -18 18 -21 30 -6 10 13 9 15 -9 15 -11 0 -21 -4 -21 -9z"></path> <path d="M3374 5062 c-6 -8 -21 -16 -34 -18 -14 -1 -27 -3 -29 -3 -2 -1 2 -7 8 -15 6 -7 9 -21 5 -30 -5 -13 2 -16 44 -16 45 0 50 2 54 24 3 16 0 27 -9 30 -8 3 -12 9 -10 13 3 5 -1 13 -7 19 -10 9 -15 8 -22 -4z m26 -58 c0 -19 -20 -18 -50 3 l-24 17 24 7 c27 6 50 -6 50 -27z"></path> <path d="M3023 5052 c-7 -5 -14 -20 -15 -35 -1 -15 -5 -27 -8 -27 -4 0 -12 -16 -20 -35 -8 -19 -17 -35 -22 -35 -4 0 -5 -7 -1 -16 4 -11 16 5 38 51 18 37 38 72 44 78 22 22 10 35 -16 19z"></path> <path d="M3162 5053 c-10 -4 -10 -8 -1 -20 11 -12 8 -13 -17 -7 -16 3 -33 7 -39 8 -5 0 -13 6 -17 11 -5 6 -8 5 -8 -3 0 -7 -4 -11 -9 -8 -5 3 -15 -2 -22 -12 -8 -11 -9 -13 -1 -6 15 13 122 1 131 -15 9 -14 44 -7 49 9 3 9 -3 11 -22 8 -30 -6 -35 6 -8 21 9 6 12 11 7 11 -6 0 -17 -6 -24 -12 -11 -11 -13 -10 -8 5 4 9 5 17 4 16 -1 0 -8 -3 -15 -6z"></path> <path d="M3240 5043 c0 -12 7 -23 15 -27 13 -5 14 -2 4 17 -17 32 -19 33 -19 10z"></path> <path d="M3504 5042 c-8 -5 -7 -11 4 -22 14 -13 15 -12 9 2 -3 9 -1 19 6 22 7 2 8 5 2 5 -5 0 -15 -3 -21 -7z"></path> <path d="M2795 5031 c-7 -12 25 -30 42 -24 17 6 28 -18 12 -28 -11 -7 -10 -9 4 -9 9 0 17 -3 17 -7 0 -5 -11 -8 -26 -8 -19 0 -24 4 -20 18 2 9 0 14 -5 11 -6 -3 -15 -1 -22 5 -9 7 -13 5 -13 -9 0 -10 4 -16 8 -14 8 5 12 -17 10 -48 -1 -11 5 -18 16 -17 10 0 12 3 5 6 -9 3 -10 10 -3 24 8 14 17 17 40 12 36 -7 36 -6 8 46 -14 26 -27 40 -36 36 -7 -2 -10 0 -7 5 3 6 -1 10 -9 10 -8 0 -17 -4 -21 -9z"></path> <path d="M2515 5008 c-8 -13 -20 -39 -25 -58 -5 -20 -18 -45 -28 -55 -19 -20 -22 -27 -22 -45 0 -5 -6 -10 -14 -10 -20 0 -37 -25 -30 -44 10 -25 16 -20 53 40 19 30 38 57 44 61 5 3 2 -6 -7 -19 -15 -23 -15 -26 8 -47 l24 -22 20 25 c19 24 43 35 41 19 -3 -21 2 -33 12 -27 6 3 9 14 6 24 -3 13 0 17 9 13 10 -4 12 0 8 11 -8 20 -12 20 -49 -2 -16 -10 -40 -21 -52 -24 -19 -5 -21 -3 -13 11 16 31 39 44 82 47 26 2 47 10 55 20 7 10 14 15 14 11 5 -26 4 -33 -4 -44 -15 -20 1 -15 22 6 19 19 19 20 -3 40 -12 12 -30 21 -39 21 -9 0 -17 7 -17 15 0 21 -36 55 -59 55 -11 0 -27 -10 -36 -22z m66 -15 c13 -15 11 -16 -10 -10 -14 3 -31 1 -38 -5 -14 -12 -16 -8 -7 16 8 21 38 20 55 -1z m13 -39 c21 -21 21 -21 -14 -16 -19 3 -35 -2 -47 -14 -17 -17 -18 -17 -22 1 -7 37 54 59 83 29z"></path> <path d="M3751 5008 c13 -30 39 -38 39 -12 0 9 -6 14 -12 11 -7 -2 -19 3 -26 12 -10 13 -10 11 -1 -11z"></path> <path d="M3473 4991 c-8 -24 -8 -28 2 -24 17 6 28 34 17 45 -4 4 -13 -5 -19 -21z"></path> <path d="M3543 5013 c-7 -2 -13 -10 -13 -17 0 -14 -45 -56 -60 -56 -6 0 -10 -5 -10 -10 0 -17 41 8 78 47 40 43 41 51 5 36z"></path> <path d="M2900 4987 c0 -7 12 -20 28 -30 27 -18 27 -18 2 -12 -22 5 -23 5 -7 -6 31 -19 40 4 14 34 -25 29 -37 34 -37 14z"></path> <path d="M3053 4988 c-11 -5 -29 -25 -39 -44 -15 -28 -16 -36 -5 -46 10 -11 18 -6 42 22 16 19 29 38 29 43 0 16 -32 -16 -41 -40 -9 -25 -29 -31 -29 -9 0 23 56 77 74 70 9 -3 16 -1 16 5 0 13 -18 13 -47 -1z"></path> <path d="M3116 4976 c8 -22 52 -48 59 -36 3 6 -1 13 -9 16 -9 3 -13 11 -9 17 3 5 1 7 -5 3 -6 -3 -13 -2 -17 4 -10 15 -25 12 -19 -4z"></path> <path d="M3246 4982 c-3 -6 -1 -14 5 -17 15 -10 25 3 12 16 -7 7 -13 7 -17 1z"></path> <path d="M3593 4975 c0 -18 23 -20 33 -3 4 7 3 8 -4 4 -7 -4 -12 -2 -12 3 0 6 -4 11 -8 11 -5 0 -9 -7 -9 -15z"></path> <path d="M2457 4973 c-4 -3 -7 -11 -7 -17 0 -6 5 -5 12 2 6 6 9 14 7 17 -3 3 -9 2 -12 -2z"></path> <path d="M2743 4954 c-10 -22 -9 -24 13 -24 27 0 29 7 11 31 -11 15 -14 14 -24 -7z"></path> <path d="M3734 4966 c-3 -9 -11 -13 -17 -9 -6 4 -7 1 -2 -6 6 -10 11 -9 23 3 9 8 13 19 9 22 -4 4 -9 -1 -13 -10z"></path> <path d="M3659 4949 c20 -19 25 -38 22 -84 -1 -17 1 -17 13 5 17 28 21 54 7 46 -5 -3 -11 7 -14 22 -4 19 -12 28 -28 29 l-22 2 22 -20z"></path> <path d="M3195 4924 c-8 -20 -15 -39 -15 -43 1 -11 40 44 40 56 0 6 6 14 13 16 7 3 5 6 -5 6 -11 1 -23 -13 -33 -35z"></path> <path d="M3370 4950 c0 -5 5 -10 10 -10 6 0 10 5 10 10 0 6 -4 10 -10 10 -5 0 -10 -4 -10 -10z"></path> <path d="M3779 4958 c-3 -11 -5 -48 -2 -48 9 0 33 29 33 39 0 9 -28 17 -31 9z"></path> <path d="M3990 4940 c-6 -11 -21 -20 -34 -20 -13 0 -29 -7 -36 -15 -7 -8 -16 -12 -21 -9 -21 13 -7 -5 16 -20 23 -15 24 -15 18 1 -5 12 -2 15 9 11 9 -4 21 -1 27 5 8 8 14 7 24 -2 10 -11 9 -12 -3 -6 -9 5 -12 4 -7 -1 4 -4 18 -9 30 -9 16 0 28 -12 44 -44 24 -47 22 -70 -3 -37 -8 11 -14 15 -14 9 0 -7 5 -15 10 -18 16 -10 12 -65 -5 -71 -8 -4 -15 -10 -15 -15 0 -17 39 11 53 37 12 22 15 24 26 10 7 -8 14 -31 16 -50 3 -27 0 -33 -11 -29 -8 3 -14 1 -14 -5 0 -6 13 -13 29 -17 31 -7 64 -45 53 -61 -12 -16 -32 -15 -32 2 0 14 -3 14 -16 3 -13 -11 -12 -14 13 -24 25 -11 31 -9 51 12 19 21 20 26 8 38 -7 8 -16 11 -20 8 -3 -4 -6 -1 -6 5 0 15 3 15 35 0 29 -13 33 -45 8 -64 -10 -7 -13 -14 -6 -14 6 0 14 4 17 9 4 5 19 3 36 -5 27 -14 28 -17 18 -42 -7 -15 -16 -33 -22 -40 -6 -8 -6 -16 1 -23 6 -6 18 0 33 16 13 14 21 25 17 25 -3 0 1 16 9 35 11 28 12 35 1 35 -29 0 -67 25 -61 41 7 23 -19 46 -69 61 -52 14 -49 12 -53 43 -3 32 -30 75 -46 75 -9 0 -9 3 0 12 7 7 12 30 12 51 0 32 -7 46 -39 78 -43 44 -65 49 -81 19z m51 -20 c24 -13 52 -66 46 -88 -3 -13 -7 -10 -15 11 -7 15 -26 41 -44 58 -32 29 -25 39 13 19z"></path> <path d="M3407 4935 c-4 -8 -2 -17 4 -21 6 -4 5 -12 -3 -22 -12 -15 -11 -16 5 -3 11 9 14 18 8 24 -5 5 -7 16 -4 23 3 8 3 14 0 14 -3 0 -7 -7 -10 -15z"></path> <path d="M3563 4937 c-26 -11 -30 -27 -8 -27 8 0 15 -5 15 -10 0 -6 11 -3 25 6 14 9 23 19 20 22 -3 3 -11 0 -17 -6 -18 -18 -33 -15 -18 3 17 20 10 25 -17 12z"></path> <path d="M3131 4933 c-1 -6 4 -15 9 -18 8 -5 7 -11 -1 -21 -13 -16 -6 -30 9 -20 16 10 21 46 7 46 -7 0 -16 6 -18 13 -4 9 -6 9 -6 0z"></path> <path d="M3288 4922 c-10 -12 -10 -14 0 -8 7 4 12 2 12 -4 0 -7 6 -10 14 -7 7 3 19 0 25 -6 11 -11 12 -9 11 21 -1 16 -49 20 -62 4z"></path> <path d="M3823 4918 c-13 -6 -23 -17 -23 -25 0 -7 -4 -13 -10 -13 -5 0 -10 -4 -10 -10 0 -18 18 -11 25 10 3 11 14 20 24 20 9 0 26 7 37 15 19 14 19 14 -1 14 -11 0 -30 -5 -42 -11z"></path> <path d="M2777 4883 c2 -51 3 -52 14 -25 6 15 5 30 -1 43 -14 26 -15 25 -13 -18z"></path> <path d="M3630 4912 c0 -4 6 -14 13 -21 10 -11 9 -13 -4 -8 -12 4 -18 -2 -22 -21 -7 -37 1 -41 24 -13 21 25 25 51 8 51 -5 0 -7 5 -4 10 3 6 1 10 -4 10 -6 0 -11 -4 -11 -8z"></path> <path d="M2841 4884 c-22 -28 -28 -50 -11 -39 6 3 10 14 10 23 1 10 7 5 16 -13 8 -16 12 -22 9 -12 -4 17 3 21 43 17 16 -1 22 4 22 18 0 18 -3 19 -30 9 -31 -12 -54 -2 -30 13 9 6 10 10 3 10 -6 0 -21 -12 -32 -26z"></path> <path d="M3110 4900 c-9 -6 -10 -10 -3 -10 6 0 15 5 18 10 8 12 4 12 -15 0z"></path> <path d="M2756 4883 c-6 -14 -5 -15 5 -6 7 7 10 15 7 18 -3 3 -9 -2 -12 -12z"></path> <path d="M3210 4881 c-12 -23 -13 -31 -2 -31 4 0 12 11 19 25 13 29 -1 34 -17 6z"></path> <path d="M3266 4885 c-3 -8 -1 -15 4 -15 6 0 10 7 10 15 0 8 -2 15 -4 15 -2 0 -6 -7 -10 -15z"></path> <path d="M3054 4875 c8 -8 17 -15 20 -15 3 0 3 7 0 15 -4 8 -13 15 -21 15 -12 0 -12 -2 1 -15z"></path> <path d="M3372 4878 c2 -6 10 -13 16 -14 7 -1 8 0 2 3 -5 2 -8 9 -4 14 3 5 0 9 -6 9 -7 0 -10 -5 -8 -12z"></path> <path d="M3738 4865 c-6 -14 -8 -28 -4 -33 9 -8 36 26 36 45 0 22 -20 14 -32 -12z"></path> <path d="M2671 4863 c-5 -10 -13 -17 -18 -16 -4 1 -11 -7 -15 -18 -9 -24 -4 -24 23 -1 26 22 43 52 30 52 -6 0 -14 -8 -20 -17z"></path> <path d="M3308 4873 c6 -2 12 -14 12 -26 1 -20 2 -20 11 -4 6 9 15 14 21 11 7 -4 8 -2 4 5 -4 6 -12 9 -17 6 -5 -4 -9 -1 -9 4 0 6 -8 11 -17 10 -11 0 -13 -3 -5 -6z"></path> <path d="M2940 4849 c0 -11 5 -17 10 -14 6 3 10 13 10 21 0 8 -4 14 -10 14 -5 0 -10 -9 -10 -21z"></path> <path d="M3424 4855 c-19 -14 -19 -14 2 -15 12 0 21 6 21 15 0 18 1 18 -23 0z"></path> <path d="M3566 4855 c-9 -23 -8 -25 9 -25 17 0 19 9 6 28 -7 11 -10 10 -15 -3z"></path> <path d="M3865 4861 c-3 -6 -10 -9 -13 -7 -4 2 -19 -4 -32 -15 l-25 -19 30 -26 c20 -18 30 -23 33 -14 3 7 -3 17 -12 22 -9 5 -16 16 -16 25 0 13 3 13 15 3 12 -10 15 -10 15 3 0 8 6 17 13 20 6 2 9 7 6 11 -4 4 -10 2 -14 -3z"></path> <path d="M2976 4848 c3 -4 9 -8 15 -8 5 0 9 4 9 8 0 5 -7 9 -15 9 -8 0 -12 -4 -9 -9z"></path> <path d="M3044 4845 c10 -8 23 -12 27 -9 5 3 9 2 9 -3 1 -4 10 -19 21 -32 18 -22 21 -23 37 -7 10 9 24 16 30 16 7 0 12 12 11 28 0 15 -3 20 -6 12 -3 -8 -15 -25 -26 -37 l-20 -23 -19 31 c-12 19 -24 29 -33 25 -8 -3 -17 -1 -20 4 -4 6 -12 10 -18 10 -7 0 -3 -7 7 -15z"></path> <path d="M3121 4851 c-8 -5 -9 -11 -3 -15 5 -3 12 1 16 9 6 17 6 18 -13 6z"></path> <path d="M3960 4845 c0 -8 5 -15 11 -15 5 0 7 6 3 13 -4 7 -3 9 2 4 5 -5 9 -12 9 -15 1 -4 5 -18 9 -31 6 -16 4 -26 -5 -32 -11 -7 -10 -9 4 -9 10 0 15 -4 12 -10 -3 -5 -2 -10 4 -10 6 0 8 14 5 33 -3 17 -6 40 -7 50 -3 30 -47 50 -47 22z"></path> <path d="M2751 4843 c-1 -18 -42 -53 -62 -53 -22 0 -49 -32 -32 -37 7 -2 9 -11 6 -19 -3 -8 -1 -14 5 -14 5 0 12 6 15 14 4 9 14 12 28 9 15 -4 20 -3 15 5 -4 7 -18 12 -32 12 -13 0 -24 5 -24 10 0 6 8 10 18 10 26 0 76 44 69 61 -3 8 -6 9 -6 2z"></path> <path d="M3286 4831 c-10 -11 -13 -21 -7 -25 10 -7 14 -3 24 27 8 22 4 22 -17 -2z"></path> <path d="M3775 4841 c-3 -5 -1 -12 5 -16 5 -3 10 1 10 9 0 18 -6 21 -15 7z"></path> <path d="M2905 4832 c3 -3 1 -10 -4 -16 -10 -13 -32 -76 -26 -76 5 0 55 84 55 92 0 2 -7 5 -15 5 -8 0 -13 -3 -10 -5z"></path> <path d="M3193 4827 c3 -11 57 -17 57 -6 0 4 -14 9 -30 11 -18 3 -29 0 -27 -5z"></path> <path d="M3487 4805 c15 -19 32 -35 37 -35 5 0 3 6 -3 14 -8 10 -9 16 -1 21 5 3 10 12 10 18 0 7 -7 4 -15 -6 -13 -18 -14 -18 -25 2 -6 12 -15 21 -21 21 -5 0 3 -16 18 -35z"></path> <path d="M2547 4807 c-5 -18 -12 -25 -20 -20 -7 4 -6 0 2 -11 11 -13 11 -20 3 -28 -15 -15 -16 -52 -1 -43 6 4 8 13 5 20 -3 8 7 25 21 39 14 14 21 26 15 26 -6 0 -12 10 -14 23 -3 20 -4 20 -11 -6z"></path> <path d="M2790 4809 c0 -13 5 -31 10 -39 7 -11 8 -5 4 20 -8 43 -14 51 -14 19z"></path> <path d="M3360 4814 c0 -7 -8 -10 -19 -7 -22 6 -61 -29 -61 -54 0 -13 7 -10 31 13 25 24 39 29 81 29 32 0 53 -5 56 -12 2 -7 11 -13 19 -13 13 0 13 3 3 16 -28 33 -110 54 -110 28z"></path> <path d="M3653 4814 c-18 -9 -33 -20 -33 -25 0 -5 -6 -6 -14 -3 -8 3 -16 2 -19 -3 -3 -4 7 -9 22 -10 18 -1 40 8 62 27 38 33 31 38 -18 14z"></path> <path d="M3930 4813 c0 -13 5 -23 10 -23 13 0 13 11 0 30 -8 12 -10 11 -10 -7z"></path> <path d="M2991 4806 c-7 -8 -8 -17 -3 -20 6 -3 12 3 15 14 6 24 4 25 -12 6z"></path> <path d="M2253 4784 c-27 -21 -33 -32 -33 -64 0 -22 6 -43 16 -51 9 -7 14 -22 11 -36 -3 -16 -1 -21 7 -15 6 5 19 12 29 15 13 5 17 2 15 -10 -2 -10 5 -19 15 -21 19 -4 25 34 6 40 -8 3 -6 10 5 21 24 23 35 21 46 -8 5 -14 16 -25 25 -25 13 0 13 3 3 20 -7 11 -16 20 -19 20 -4 0 -5 10 -3 23 2 12 2 16 -2 10 -11 -24 -31 -14 -27 12 6 30 34 56 40 38 7 -18 33 -16 33 3 0 8 -4 12 -10 9 -5 -3 -10 -1 -10 5 0 6 -12 10 -27 8 -30 -3 -73 -65 -73 -105 0 -13 -4 -23 -10 -23 -20 0 -50 41 -50 69 0 38 24 61 63 61 18 0 43 3 56 7 23 6 23 7 5 14 -38 15 -79 9 -111 -17z"></path> <path d="M2943 4783 c-10 -16 -23 -34 -30 -41 -15 -16 -17 -46 -3 -37 6 3 10 12 10 20 0 8 5 17 12 21 8 5 9 0 5 -15 -6 -26 1 -51 14 -51 6 0 6 7 0 18 -6 11 -6 24 1 36 5 9 7 20 5 23 -3 3 -2 16 3 29 13 32 5 30 -17 -3z"></path> <path d="M3043 4782 c15 -15 27 -33 27 -40 0 -6 6 -15 14 -19 8 -4 16 -17 19 -28 3 -11 4 -2 3 20 -2 28 -8 41 -20 43 -10 2 -15 10 -12 18 3 7 -3 18 -14 24 -35 19 -44 10 -17 -18z"></path> <path d="M3550 4801 c0 -5 5 -13 10 -16 6 -3 10 -2 10 4 0 5 -4 13 -10 16 -5 3 -10 2 -10 -4z"></path> <path d="M2596 4789 c4 -6 10 -27 14 -46 7 -28 5 -33 -6 -29 -16 6 -19 -10 -4 -19 6 -4 10 -15 8 -25 -3 -18 -1 -20 20 -20 9 0 -3 124 -13 140 -4 6 -11 10 -16 10 -6 0 -7 -5 -3 -11z"></path> <path d="M3227 4793 c-3 -4 0 -16 7 -25 11 -15 13 -15 25 4 9 14 9 18 1 13 -7 -4 -16 -2 -20 5 -4 7 -10 8 -13 3z"></path> <path d="M3765 4775 c34 -27 47 -31 39 -12 -2 7 -19 18 -37 25 l-32 12 30 -25z"></path> <path d="M3877 4780 c4 -14 0 -20 -11 -20 -18 0 -22 -25 -6 -35 6 -3 10 1 10 10 0 9 4 14 9 11 5 -3 11 8 13 24 3 20 0 30 -8 30 -7 0 -10 -8 -7 -20z"></path> <path d="M2459 4783 c0 -5 -2 -18 -3 -30 -1 -12 3 -32 10 -45 12 -21 13 -19 14 30 0 28 -4 52 -10 52 -5 0 -10 -3 -11 -7z"></path> <path d="M2845 4780 c3 -5 8 -10 11 -10 2 0 4 5 4 10 0 6 -5 10 -11 10 -5 0 -7 -4 -4 -10z"></path> <path d="M3171 4760 c-5 -16 -8 -30 -6 -30 3 0 11 14 20 30 9 17 11 30 6 30 -5 0 -14 -13 -20 -30z"></path> <path d="M3376 4773 c-4 -5 -11 -8 -14 -8 -26 -2 -51 -19 -56 -38 -9 -33 -7 -87 3 -87 4 0 6 11 4 24 -6 28 23 89 38 80 6 -3 18 1 27 9 9 8 24 17 32 20 10 4 9 6 -6 6 -11 1 -24 -2 -28 -6z"></path> <path d="M2750 4766 c0 -2 11 -11 25 -20 28 -19 33 -15 9 8 -14 15 -34 22 -34 12z"></path> <path d="M3700 4759 c0 -5 -6 -7 -12 -3 -9 5 -8 2 1 -9 8 -10 14 -16 15 -15 1 2 8 11 15 21 12 14 11 17 -3 17 -9 0 -16 -5 -16 -11z"></path> <path d="M3761 4750 c14 -31 19 -36 19 -24 0 6 -7 19 -16 30 -14 18 -14 18 -3 -6z"></path> <path d="M3937 4750 c-14 -17 -15 -20 -2 -20 9 0 18 7 22 15 9 24 -1 27 -20 5z"></path> <path d="M2554 4750 c-15 -15 -5 -100 13 -100 13 0 13 3 3 15 -8 10 -10 29 -6 55 7 42 6 46 -10 30z"></path> <path d="M3120 4750 c0 -5 5 -10 11 -10 5 0 7 5 4 10 -3 6 -8 10 -11 10 -2 0 -4 -4 -4 -10z"></path> <path d="M3421 4738 c44 -42 20 -103 -35 -90 -17 4 -19 2 -9 -8 18 -19 80 -4 86 21 10 37 -15 94 -42 97 l-24 4 24 -24z"></path> <path d="M3470 4756 c0 -2 7 -9 15 -16 9 -7 15 -8 15 -2 0 5 -7 12 -15 16 -8 3 -15 4 -15 2z"></path> <path d="M3210 4733 c0 -15 -2 -16 -10 -3 -8 13 -10 12 -10 -2 0 -24 17 -23 30 2 7 14 7 20 0 20 -5 0 -10 -8 -10 -17z"></path> <path d="M3520 4738 c0 -9 7 -19 16 -22 15 -6 15 -4 3 11 -7 10 -15 20 -16 22 -2 2 -3 -3 -3 -11z"></path> <path d="M3020 4734 c0 -3 7 -12 15 -20 16 -17 18 -14 9 10 -6 15 -24 23 -24 10z"></path> <path d="M3373 4732 c-14 -10 -23 -40 -17 -57 10 -25 24 -17 24 14 0 20 6 31 18 33 15 3 15 4 1 10 -9 3 -20 3 -26 0z"></path> <path d="M2406 4718 c-4 -9 1 -34 12 -58 16 -36 20 -39 32 -26 10 13 10 16 -2 16 -10 0 -19 16 -25 43 -7 30 -12 37 -17 25z"></path> <path d="M2860 4715 c0 -8 2 -15 4 -15 2 0 6 7 10 15 3 8 1 15 -4 15 -6 0 -10 -7 -10 -15z"></path> <path d="M3878 4713 c-21 -26 -39 -73 -28 -73 10 0 24 22 40 64 11 30 8 32 -12 9z"></path> <path d="M2986 4703 c-6 -14 -5 -15 5 -6 7 7 10 15 7 18 -3 3 -9 -2 -12 -12z"></path> <path d="M3957 4713 c-4 -3 16 -27 43 -53 31 -29 50 -55 50 -69 0 -14 -4 -20 -12 -15 -7 4 -8 3 -4 -4 15 -24 26 -10 26 32 0 55 -24 84 -63 77 -5 -1 -11 8 -14 19 -5 20 -15 25 -26 13z"></path> <path d="M2835 4700 c-3 -5 -1 -10 4 -10 6 0 11 5 11 10 0 6 -2 10 -4 10 -3 0 -8 -4 -11 -10z"></path> <path d="M3722 4701 c-10 -6 -5 -11 17 -21 17 -7 28 -17 25 -22 -3 -5 5 -4 17 4 13 7 25 13 27 14 1 1 -1 9 -4 19 -6 15 -8 15 -15 2 -5 -9 -18 -13 -34 -10 -13 3 -22 9 -19 14 6 11 3 11 -14 0z"></path> <path d="M3925 4700 c-3 -5 -1 -10 4 -10 6 0 11 5 11 10 0 6 -2 10 -4 10 -3 0 -8 -4 -11 -10z"></path> <path d="M2501 4683 c-1 -27 11 -30 30 -5 13 15 12 16 -3 4 -14 -11 -17 -10 -21 5 -4 14 -5 13 -6 -4z"></path> <path d="M3216 4685 c-11 -8 -15 -15 -9 -15 6 0 16 7 23 15 16 19 11 19 -14 0z"></path> <path d="M3000 4673 c0 -11 3 -14 8 -7 4 6 14 14 22 17 10 4 8 6 -7 6 -16 1 -23 -5 -23 -16z"></path> <path d="M2773 4665 c-17 -19 -16 -26 1 -19 15 6 30 34 18 34 -4 -1 -13 -7 -19 -15z"></path> <path d="M2886 4665 c4 -8 8 -15 10 -15 2 0 4 7 4 15 0 8 -4 15 -10 15 -5 0 -7 -7 -4 -15z"></path> <path d="M3507 4645 c-15 -19 -27 -42 -27 -52 0 -11 12 1 31 31 36 57 34 69 -4 21z"></path> <path d="M2663 4663 c-15 -5 -17 -23 -4 -23 5 0 11 7 15 15 3 8 4 15 3 14 -1 0 -8 -3 -14 -6z"></path> <path d="M2826 4644 c4 -38 14 -42 14 -6 0 18 -4 32 -9 32 -4 0 -7 -12 -5 -26z"></path> <path d="M3603 4654 c-15 -16 -16 -24 -4 -24 8 0 24 30 19 35 -2 2 -9 -3 -15 -11z"></path> <path d="M3905 4658 c-20 -11 -44 -38 -45 -48 0 -3 10 -7 22 -7 18 -2 19 0 8 7 -13 8 -13 12 2 26 17 17 19 16 39 -7 19 -22 21 -22 18 -4 -2 11 0 26 4 33 10 16 -20 16 -48 0z"></path> <path d="M4075 4660 c3 -5 8 -10 11 -10 2 0 4 5 4 10 0 6 -5 10 -11 10 -5 0 -7 -4 -4 -10z"></path> <path d="M3700 4650 c20 -13 33 -13 25 0 -3 6 -14 10 -23 10 -15 0 -15 -2 -2 -10z"></path> <path d="M3646 4635 c-9 -26 -7 -32 5 -12 6 10 9 21 6 23 -2 3 -7 -2 -11 -11z"></path> <path d="M2351 4623 c-17 -32 -13 -38 9 -18 18 16 20 16 20 2 0 -22 14 -22 31 1 11 14 11 15 0 5 -11 -9 -17 -7 -31 10 l-17 21 -12 -21z"></path> <path d="M2560 4631 c0 -6 5 -13 10 -16 6 -4 8 -10 5 -15 -3 -4 4 -10 15 -13 11 -3 23 -1 26 4 3 5 -1 9 -9 9 -8 0 -17 9 -20 20 -5 20 -27 28 -27 11z"></path> <path d="M3006 4624 c-17 -12 -17 -14 -4 -14 9 0 20 5 23 11 11 17 2 18 -19 3z"></path> <path d="M2630 4615 c7 -9 15 -13 17 -11 7 7 -7 26 -19 26 -6 0 -6 -6 2 -15z"></path> <path d="M2750 4628 c-6 -37 -5 -108 1 -108 5 0 9 8 9 18 0 9 3 34 6 55 5 24 3 37 -5 37 -6 0 -11 -1 -11 -2z"></path> <path d="M3316 4615 c4 -8 11 -15 16 -15 6 0 5 6 -2 15 -7 8 -14 15 -16 15 -2 0 -1 -7 2 -15z"></path> <path d="M3721 4611 c-8 -15 -6 -22 12 -34 21 -15 21 -16 2 -17 -17 0 -18 -2 -5 -10 13 -9 13 -11 0 -19 -8 -6 -11 -13 -8 -17 4 -3 17 10 29 30 16 28 27 36 50 36 18 0 32 7 39 21 15 27 5 36 -17 16 -27 -24 -72 -38 -90 -29 -13 8 -13 11 2 25 9 10 12 17 6 17 -6 0 -15 -9 -20 -19z"></path> <path d="M4090 4603 c0 -18 5 -33 10 -33 13 0 13 30 0 50 -7 11 -10 7 -10 -17z"></path> <path d="M2435 4594 c-9 -15 -18 -43 -20 -63 -1 -20 -1 -28 2 -18 2 9 7 15 11 13 4 -2 8 8 9 22 0 15 11 34 22 43 24 20 27 29 7 29 -7 0 -21 -12 -31 -26z"></path> <path d="M2795 4584 c-3 -22 -8 -49 -11 -60 -2 -13 2 -24 9 -27 15 -5 15 -6 18 66 2 59 -8 72 -16 21z"></path> <path d="M3916 4612 c-2 -4 -1 -14 5 -22 7 -12 9 -10 9 8 0 23 -5 28 -14 14z"></path> <path d="M3965 4586 c5 -45 7 -48 29 -40 21 8 21 22 -1 20 -11 -1 -20 9 -25 29 -6 25 -7 24 -3 -9z"></path> <path d="M3432 4589 c-31 -16 -31 -17 -9 -21 17 -3 28 2 36 15 16 25 12 26 -27 6z"></path> <path d="M2527 4593 c-11 -10 -8 -43 3 -43 6 0 10 11 10 25 0 26 -2 29 -13 18z"></path> <path d="M3847 4565 c-3 -16 0 -24 7 -22 14 4 21 47 8 47 -5 0 -12 -11 -15 -25z"></path> <path d="M2285 4570 c-4 -6 -10 -8 -15 -5 -5 3 -27 1 -49 -5 -30 -8 -46 -21 -70 -57 -40 -59 -41 -105 -5 -138 22 -20 24 -27 14 -39 -14 -18 -5 -73 17 -98 14 -15 13 -21 -6 -51 -30 -49 -27 -117 6 -117 21 0 81 -61 65 -67 -10 -4 -10 -8 -1 -19 15 -18 -11 -20 -30 -1 -10 10 -11 8 -5 -6 3 -10 14 -22 24 -27 11 -6 16 -20 15 -40 -1 -17 2 -33 7 -36 4 -3 6 -9 3 -14 -3 -4 7 -15 20 -24 14 -9 23 -21 21 -25 -5 -7 3 -63 19 -145 3 -16 11 -38 17 -49 6 -11 12 -48 13 -81 3 -74 21 -226 33 -281 5 -22 21 -67 36 -100 16 -33 38 -89 51 -125 78 -224 162 -355 297 -463 15 -12 28 -28 28 -35 0 -7 14 -34 31 -59 l32 -46 -22 -44 c-11 -24 -21 -52 -21 -63 0 -33 25 -23 39 16 7 19 19 38 27 41 11 4 11 9 -1 32 -8 16 -16 40 -18 55 -2 15 -16 38 -33 52 -19 17 -25 27 -16 30 19 9 14 18 -20 39 -58 33 -126 96 -132 121 -4 13 -11 24 -16 24 -6 0 -10 7 -10 15 0 9 -6 18 -14 21 -17 6 -76 97 -76 115 1 10 5 8 15 -5 9 -12 20 -16 32 -11 15 6 15 8 3 12 -40 14 -117 121 -106 149 4 10 2 12 -6 8 -7 -4 -8 -3 -4 5 4 6 2 20 -5 29 -7 9 14 -8 47 -39 32 -31 75 -65 95 -76 52 -29 230 -105 236 -100 4 5 -109 60 -149 72 -48 16 -125 66 -177 117 -60 58 -105 124 -96 138 4 6 -1 17 -9 26 -20 20 -20 40 0 48 10 4 13 13 9 25 -3 12 0 21 10 25 8 3 15 0 15 -7 0 -24 69 -79 182 -146 34 -20 98 -44 98 -37 0 2 -33 19 -72 39 -40 20 -82 43 -93 52 l-20 17 20 -7 c11 -4 43 -15 71 -25 27 -10 70 -21 95 -24 24 -4 86 -16 137 -27 51 -11 97 -17 102 -14 5 3 20 -1 33 -9 21 -14 23 -14 23 3 0 11 -7 20 -16 20 -8 0 -24 2 -35 4 -11 2 -42 7 -70 11 -286 42 -414 89 -452 166 l-11 23 -21 -34 c-16 -27 -21 -30 -21 -14 0 17 -2 17 -10 5 -7 -11 -10 -6 -10 20 0 20 5 41 12 48 8 8 8 12 1 12 -14 0 -37 231 -34 337 1 17 -3 34 -9 38 -6 4 -10 -9 -11 -32 0 -33 -1 -35 -9 -15 -6 12 -8 43 -5 67 2 25 -1 45 -6 45 -6 0 -6 7 1 19 14 28 12 39 -4 18 -9 -12 -16 -14 -21 -8 -3 6 -3 11 2 11 4 0 -3 7 -15 16 -26 18 -30 36 -5 27 13 -5 15 -2 10 11 -4 10 -7 22 -7 27 0 6 -5 7 -12 3 -8 -5 -9 -2 -3 12 4 10 9 30 11 44 2 14 1 17 -2 8 -3 -10 -10 -18 -14 -18 -6 0 -5 11 0 26 13 32 12 37 0 29 -5 -3 -10 1 -10 10 0 9 -10 25 -22 34 -14 12 -19 24 -14 36 6 16 8 17 24 1 33 -29 34 -17 3 17 -36 37 -41 61 -11 52 15 -5 18 -3 14 9 -3 8 -15 18 -26 22 -20 6 -20 6 1 21 25 17 41 10 42 -20 0 -21 1 -21 9 -2 9 21 9 21 15 -8 7 -36 15 -47 35 -47 24 0 26 13 5 34 -20 20 -19 26 5 26 16 0 20 -7 20 -32 0 -52 12 -24 15 35 2 49 0 54 -17 49 -15 -4 -17 -7 -6 -13 11 -7 11 -9 -1 -9 -8 0 -19 -7 -26 -16 -10 -15 -14 -14 -40 10 -16 15 -35 24 -42 22 -16 -7 -17 6 0 24 10 12 9 12 -5 1 -10 -7 -19 -12 -19 -10 -1 2 -3 28 -4 57 l-3 52 31 -22 c21 -14 27 -16 19 -6 -8 10 -11 22 -7 28 3 5 1 10 -5 10 -6 0 -8 10 -4 25 4 15 2 25 -5 25 -6 0 -11 -5 -11 -12 0 -6 -2 -9 -5 -6 -12 12 9 39 26 35 14 -4 23 4 36 30 9 19 16 41 16 49 0 8 4 14 9 14 4 0 8 5 8 10 0 13 -17 13 -25 0z m-35 -41 c0 -8 5 -8 15 1 12 10 15 10 15 -3 0 -8 -15 -22 -34 -31 -19 -9 -37 -22 -39 -29 -3 -6 -6 5 -6 25 -1 27 4 38 17 41 29 8 32 7 32 -4z m-75 -158 c-12 -11 -32 28 -29 55 1 14 8 40 16 58 13 30 13 29 16 -38 2 -37 0 -71 -3 -75z m25 -101 c8 -5 11 -12 7 -16 -4 -4 -15 0 -24 9 -18 18 -8 23 17 7z m0 -144 c0 -19 -4 -37 -9 -41 -13 -7 -24 30 -16 55 10 32 25 23 25 -14z" class=""></path> <path d="M2390 4572 c0 -7 -16 -18 -35 -26 -44 -19 -44 -24 -2 -22 25 1 34 6 39 25 4 14 5 27 3 30 -3 2 -5 -1 -5 -7z"></path> <path d="M3112 4570 c2 -6 7 -11 12 -10 5 1 13 -4 18 -12 7 -9 8 -8 6 7 -2 11 -12 21 -22 23 -11 2 -17 -1 -14 -8z"></path> <path d="M2579 4553 c-13 -15 -12 -15 9 -4 23 12 28 21 13 21 -5 0 -15 -7 -22 -17z"></path> <path d="M3443 4528 c-27 -29 -30 -35 -17 -47 9 -7 13 -16 9 -19 -3 -4 -10 0 -15 8 -6 9 -10 10 -10 3 0 -6 5 -15 11 -18 11 -8 8 -67 -4 -76 -5 -3 -1 -9 8 -13 14 -5 16 -2 11 19 -6 25 9 36 17 13 5 -15 0 11 -9 45 -5 21 -5 21 10 3 20 -25 20 -18 0 22 -15 30 -14 34 6 62 28 39 22 38 -17 -2z"></path> <path d="M4365 4524 c20 -48 19 -72 -5 -112 -27 -45 -60 -57 -80 -30 -8 12 -14 30 -15 42 0 16 -7 22 -32 24 -20 2 -33 -1 -33 -8 0 -6 8 -9 18 -6 9 3 24 1 32 -4 12 -9 9 -16 -22 -41 -21 -17 -38 -36 -38 -42 0 -5 9 -2 20 8 11 10 20 14 20 9 0 -5 7 -1 14 9 11 15 15 15 19 3 3 -8 1 -17 -6 -20 -7 -2 -4 -5 6 -5 29 -1 14 -23 -24 -35 -19 -6 -35 -16 -36 -22 -3 -15 77 26 84 42 3 8 13 14 23 14 25 0 65 35 80 70 17 41 6 112 -21 128 -19 12 -19 12 -4 -24z"></path> <path d="M2455 4541 c-3 -5 0 -13 6 -17 7 -4 9 -3 5 4 -3 5 0 13 6 15 9 4 10 6 1 6 -6 1 -14 -3 -18 -8z"></path> <path d="M2594 4534 c-19 -15 -19 -16 1 -9 11 4 25 8 32 8 7 0 10 4 7 9 -8 12 -18 10 -40 -8z"></path> <path d="M4217 4529 c-28 -21 -77 -96 -77 -117 0 -7 7 -12 16 -12 14 0 14 3 4 15 -7 8 -8 15 -3 15 5 0 16 11 23 25 13 25 50 35 50 13 0 -6 3 -9 6 -5 5 5 15 88 11 87 -1 0 -14 -10 -30 -21z"></path> <path d="M2915 4529 c-4 -6 -5 -12 -2 -15 2 -3 7 2 10 11 7 17 1 20 -8 4z"></path> <path d="M2991 4524 c0 -11 3 -14 6 -6 3 7 2 16 -1 19 -3 4 -6 -2 -5 -13z"></path> <path d="M3166 4526 c3 -9 11 -16 16 -16 6 0 7 -8 3 -17 -5 -15 -4 -16 7 -5 9 9 10 17 2 29 -14 23 -36 29 -28 9z"></path> <path d="M3386 4531 c-4 -5 3 -7 14 -4 23 6 26 13 6 13 -8 0 -17 -4 -20 -9z"></path> <path d="M3797 4529 c-24 -14 -11 -32 14 -19 10 6 19 15 19 20 0 13 -10 12 -33 -1z"></path> <path d="M4000 4535 c0 -3 10 -15 21 -26 17 -17 23 -19 30 -8 11 18 11 26 -1 34 -6 3 -7 -1 -4 -9 3 -9 2 -16 -4 -16 -5 0 -12 7 -16 15 -5 14 -26 22 -26 10z"></path> <path d="M4086 4523 c-7 -16 22 -25 44 -13 16 9 19 8 13 -7 -5 -14 -3 -16 7 -6 21 19 4 43 -29 40 -17 -1 -33 -7 -35 -14z"></path> <path d="M2537 4516 c-9 -9 -12 -26 -9 -48 l6 -33 7 34 c4 18 12 37 19 41 8 5 9 10 2 14 -6 3 -17 0 -25 -8z"></path> <path d="M2946 4516 c3 -8 12 -17 20 -20 12 -4 12 -2 4 14 -12 23 -32 27 -24 6z"></path> <path d="M2490 4505 c0 -9 -7 -30 -16 -47 -10 -19 -12 -34 -6 -40 6 -6 12 3 16 26 4 20 10 36 14 36 4 0 8 9 8 20 0 11 -4 20 -8 20 -4 0 -8 -7 -8 -15z"></path> <path d="M3088 4513 c-22 -5 -24 -23 -3 -23 7 0 18 -7 23 -16 8 -15 10 -15 15 0 4 10 1 19 -8 22 -8 4 -12 10 -9 15 3 5 4 8 2 8 -2 -1 -11 -3 -20 -6z"></path> <path d="M3471 4508 c-1 -20 14 -24 25 -6 4 6 3 8 -4 4 -5 -3 -13 0 -15 6 -3 8 -6 6 -6 -4z"></path> <path d="M2300 4490 c-21 -21 -29 -90 -10 -90 6 0 10 15 10 33 0 38 13 62 29 53 7 -5 9 -1 5 8 -8 20 -10 20 -34 -4z"></path> <path d="M2363 4492 c10 -10 14 -23 10 -28 -4 -5 -1 -3 7 5 11 10 12 15 2 18 -6 3 -10 9 -6 14 3 5 -3 9 -12 9 -16 0 -16 -1 -1 -18z"></path> <path d="M3016 4501 c-5 -7 58 -81 69 -81 1 0 0 12 -3 26 -3 17 -9 23 -19 19 -10 -3 -13 -1 -10 9 9 23 -25 47 -37 27z"></path> <path d="M3985 4493 c8 -10 21 -27 29 -38 9 -11 16 -14 16 -8 0 15 -40 63 -52 63 -4 0 -1 -8 7 -17z"></path> <path d="M2894 4478 c-3 -13 -13 -30 -21 -40 -8 -9 -10 -18 -6 -21 16 -10 30 7 37 46 8 41 1 50 -10 15z"></path> <path d="M2931 4483 c-1 -12 4 -25 9 -28 12 -7 12 2 0 30 -8 19 -9 19 -9 -2z"></path> <path d="M3852 4464 c-1 -20 2 -34 5 -30 10 9 13 66 4 66 -4 0 -8 -16 -9 -36z"></path> <path d="M3897 4493 c-16 -15 -5 -25 21 -18 41 10 51 25 16 25 -17 0 -34 -3 -37 -7z"></path> <path d="M4326 4485 c-3 -8 -1 -17 3 -20 5 -3 11 2 15 10 3 8 1 17 -3 20 -5 3 -11 -2 -15 -10z"></path> <path d="M2830 4479 c0 -5 5 -7 10 -4 6 3 10 8 10 11 0 2 -4 4 -10 4 -5 0 -10 -5 -10 -11z"></path> <path d="M2440 4463 c0 -15 -2 -16 -10 -3 -8 12 -10 9 -10 -12 0 -16 -5 -28 -12 -28 -6 0 -8 -3 -5 -7 4 -3 15 2 26 11 21 19 34 56 20 56 -5 0 -9 -8 -9 -17z"></path> <path d="M3480 4461 c0 -12 5 -21 10 -21 6 0 10 6 10 14 0 8 -4 18 -10 21 -5 3 -10 -3 -10 -14z"></path> <path d="M2978 4465 c-5 -5 59 -75 68 -75 11 0 1 22 -22 49 -25 31 -36 36 -46 26z"></path> <path d="M3148 4458 c9 -9 15 -9 24 0 9 9 7 12 -12 12 -19 0 -21 -3 -12 -12z"></path> <path d="M3300 4455 c-7 -9 -11 -18 -8 -20 3 -3 11 1 18 10 7 9 11 18 8 20 -3 3 -11 -1 -18 -10z"></path> <path d="M3630 4455 c0 -8 9 -15 19 -15 11 0 21 -5 23 -11 2 -7 9 -10 16 -8 6 2 -4 14 -23 27 -28 18 -35 19 -35 7z"></path> <path d="M3965 4460 c-3 -5 1 -10 9 -10 9 0 16 5 16 10 0 6 -4 10 -9 10 -6 0 -13 -4 -16 -10z"></path> <path d="M4118 4463 c6 -2 18 -2 25 0 6 3 1 5 -13 5 -14 0 -19 -2 -12 -5z"></path> <path d="M4040 4450 c0 -5 5 -10 10 -10 6 0 10 5 10 10 0 6 -4 10 -10 10 -5 0 -10 -4 -10 -10z"></path> <path d="M4067 4446 c-6 -15 1 -26 16 -26 5 0 7 6 4 14 -3 8 -1 17 6 20 7 2 5 5 -4 5 -9 1 -19 -5 -22 -13z"></path> <path d="M4295 4440 c-15 -17 -16 -20 -3 -20 9 0 19 7 22 16 10 25 1 27 -19 4z"></path> <path d="M3516 4409 c-4 -23 -4 -44 -1 -47 3 -3 5 2 5 10 0 9 6 21 14 27 8 7 12 21 9 31 -9 32 -20 23 -27 -21z"></path> <path d="M2918 4421 c-14 -16 -14 -20 -2 -25 8 -3 14 -1 14 5 0 6 7 9 15 6 8 -4 17 -2 20 4 4 5 11 7 16 4 5 -4 9 -1 9 5 0 7 -8 9 -21 5 -12 -4 -24 -2 -28 4 -5 7 -13 4 -23 -8z"></path> <path d="M3356 4427 c3 -10 9 -15 12 -12 3 3 0 11 -7 18 -10 9 -11 8 -5 -6z"></path> <path d="M3870 4424 c0 -8 5 -12 10 -9 6 4 8 11 5 16 -9 14 -15 11 -15 -7z"></path> <path d="M3320 4407 c0 -13 9 -32 20 -42 11 -10 20 -13 20 -8 0 6 -7 13 -15 17 -11 4 -14 13 -9 31 4 15 2 25 -5 25 -6 0 -11 -11 -11 -23z"></path> <path d="M3930 4420 c0 -5 9 -10 21 -10 11 0 17 5 14 10 -3 6 -13 10 -21 10 -8 0 -14 -4 -14 -10z"></path> <path d="M2693 4413 c-7 -3 -13 -9 -13 -15 0 -5 -9 -23 -21 -39 -11 -16 -18 -37 -15 -46 3 -10 1 -25 -4 -33 -5 -9 -5 -19 2 -28 8 -9 8 -16 0 -24 -7 -7 -12 -16 -12 -20 0 -4 8 0 18 10 12 12 17 34 18 74 0 44 6 65 23 89 24 32 25 39 4 32z"></path> <path d="M3390 4409 c0 -5 5 -7 10 -4 6 3 10 8 10 11 0 2 -4 4 -10 4 -5 0 -10 -5 -10 -11z"></path> <path d="M3640 4405 c7 -9 15 -13 17 -11 7 7 -7 26 -19 26 -6 0 -6 -6 2 -15z"></path> <path d="M3897 4401 c-4 -17 -3 -21 5 -13 5 5 8 16 6 23 -3 8 -7 3 -11 -10z"></path> <path d="M4095 4410 c-4 -7 -4 -15 1 -19 5 -3 11 -15 12 -26 2 -11 6 -22 9 -25 3 -3 2 13 -1 34 -7 46 -11 52 -21 36z"></path> <path d="M4194 4398 l-19 -23 25 20 c14 11 27 21 29 22 2 2 0 3 -6 3 -5 0 -18 -10 -29 -22z"></path> <path d="M3060 4400 c0 -5 5 -10 10 -10 6 0 10 5 10 10 0 6 -4 10 -10 10 -5 0 -10 -4 -10 -10z"></path> <path d="M4040 4399 c0 -5 5 -7 10 -4 6 3 10 8 10 11 0 2 -4 4 -10 4 -5 0 -10 -5 -10 -11z"></path> <path d="M2315 4390 c-3 -6 -4 -19 0 -29 3 -11 1 -22 -5 -26 -9 -5 -15 15 -11 38 0 4 -3 7 -9 7 -13 0 -13 -16 1 -41 14 -28 38 -8 37 32 -1 31 -3 35 -13 19z"></path> <path d="M2395 4381 c6 -34 24 -58 45 -64 11 -3 20 -2 20 3 0 4 -9 10 -19 13 -11 3 -22 17 -26 36 -7 33 -26 44 -20 12z"></path> <path d="M2442 4388 c-19 -19 -14 -27 16 -25 27 2 42 13 42 32 0 6 -4 4 -9 -4 -7 -11 -13 -12 -23 -3 -11 9 -17 9 -26 0z"></path> <path d="M2990 4383 c-24 -12 -24 -13 -3 -13 12 0 25 5 28 11 11 16 2 17 -25 2z"></path> <path d="M3980 4385 c-10 -12 -10 -15 4 -15 9 0 16 7 16 15 0 8 -2 15 -4 15 -2 0 -9 -7 -16 -15z"></path> <path d="M3085 4380 c-3 -5 -1 -10 4 -10 6 0 11 5 11 10 0 6 -2 10 -4 10 -3 0 -8 -4 -11 -10z"></path> <path d="M3548 4378 c10 -13 10 -17 0 -21 -9 -4 -9 -6 -1 -6 20 -2 24 16 5 30 -15 13 -16 12 -4 -3z"></path> <path d="M4060 4379 c-11 -6 -12 -9 -2 -9 7 0 10 -4 7 -10 -3 -6 1 -7 9 -4 9 3 16 10 16 14 0 15 -15 19 -30 9z"></path> <path d="M3458 4355 c-9 -21 -9 -29 3 -40 13 -13 15 -10 16 25 2 46 -3 50 -19 15z"></path> <path d="M3590 4368 c0 -6 3 -8 6 -5 10 9 46 -12 39 -23 -3 -5 -13 -6 -23 -3 -14 5 -15 3 -5 -7 9 -10 15 -10 26 -2 8 7 18 8 22 4 5 -4 0 5 -11 20 -19 28 -54 38 -54 16z"></path> <path d="M3935 4370 c3 -5 11 -10 16 -10 6 0 7 5 4 10 -3 6 -11 10 -16 10 -6 0 -7 -4 -4 -10z"></path> <path d="M4138 4363 c7 -3 16 -2 19 1 4 3 -2 6 -13 5 -11 0 -14 -3 -6 -6z"></path> <path d="M2486 4344 c-17 -12 -18 -17 -7 -40 6 -15 14 -24 18 -21 3 4 0 14 -7 22 -11 13 -10 18 6 29 10 8 17 17 14 19 -3 3 -14 -1 -24 -9z"></path> <path d="M2702 4339 c-18 -29 -8 -35 17 -10 24 24 26 31 8 31 -7 0 -18 -9 -25 -21z"></path> <path d="M2356 4337 c3 -10 9 -15 12 -12 3 3 0 11 -7 18 -10 9 -11 8 -5 -6z"></path> <path d="M3388 4343 c7 -3 16 -2 19 1 4 3 -2 6 -13 5 -11 0 -14 -3 -6 -6z"></path> <path d="M3851 4334 c0 -11 3 -14 6 -6 3 7 2 16 -1 19 -3 4 -6 -2 -5 -13z"></path> <path d="M3973 4336 c3 -8 1 -17 -6 -20 -7 -2 -4 -5 6 -5 11 -1 17 6 17 19 0 11 -5 20 -11 20 -6 0 -9 -6 -6 -14z"></path> <path d="M4035 4342 c-6 -4 -18 -22 -29 -41 -15 -28 -16 -35 -5 -42 22 -14 56 -10 63 7 10 25 7 46 -5 39 -6 -4 -8 -13 -5 -20 2 -7 -2 -16 -10 -19 -13 -5 -15 1 -10 32 3 20 5 39 6 42 0 3 5 -2 10 -10 6 -9 10 -10 10 -3 0 16 -13 23 -25 15z m-18 -74 c-3 -8 -6 -5 -6 6 -1 11 2 17 5 13 3 -3 4 -12 1 -19z"></path> <path d="M2251 4326 c-7 -9 -9 -16 -3 -16 5 0 12 -10 15 -22 4 -12 9 -19 12 -16 3 3 2 20 -2 38 -8 29 -10 31 -22 16z"></path> <path d="M3881 4325 c-1 -21 15 -53 22 -45 2 3 -2 19 -9 35 -10 23 -13 25 -13 10z"></path> <path d="M2730 4321 c0 -6 4 -11 9 -11 5 0 12 -8 14 -17 4 -15 5 -15 6 -2 0 9 -6 22 -14 29 -10 9 -15 9 -15 1z"></path> <path d="M4300 4327 c0 -2 7 -18 15 -35 15 -28 14 -33 -4 -67 -21 -39 -36 -33 -25 11 5 19 4 25 -5 20 -6 -4 -11 -16 -11 -27 0 -11 -4 -18 -9 -15 -4 3 -6 18 -4 33 4 22 2 25 -6 13 -9 -13 -11 -13 -11 3 0 15 -3 15 -20 5 -16 -10 -25 -9 -52 5 -18 10 -25 12 -15 4 20 -16 22 -33 5 -43 -6 -4 -9 -3 -6 2 3 5 -3 18 -13 28 -13 13 -19 15 -19 6 0 -7 -3 -10 -6 -7 -4 4 -20 -3 -36 -14 -21 -15 -38 -20 -59 -15 -36 7 -30 -9 7 -18 20 -5 33 -1 50 15 20 18 27 20 46 11 l23 -11 -24 2 c-13 1 -26 -4 -28 -10 -7 -18 19 -16 79 7 62 23 61 23 56 9 -2 -7 8 -24 22 -38 21 -23 29 -25 50 -16 14 5 30 17 37 25 16 19 17 92 1 108 -11 11 -38 17 -38 9z"></path> <path d="M2530 4305 c-6 -8 -9 -19 -5 -25 4 -6 -3 -27 -14 -46 -12 -19 -21 -41 -21 -47 1 -7 8 0 16 16 8 15 17 27 19 27 7 0 0 -38 -8 -46 -4 -4 -7 -11 -7 -16 0 -5 7 -3 15 6 8 8 15 32 15 55 0 22 4 51 10 65 10 28 0 35 -20 11z"></path> <path d="M3141 4309 c-1 -9 6 -22 14 -29 8 -7 12 -16 9 -21 -3 -5 2 -17 11 -26 16 -15 15 -18 -5 -33 -15 -12 -19 -19 -11 -24 19 -12 12 -24 -19 -31 -45 -10 -69 1 -65 30 3 28 -7 32 -25 11 -9 -12 -7 -24 8 -60 29 -65 92 -89 92 -35 0 21 -1 21 -18 6 -12 -11 -22 -13 -32 -6 -13 8 -13 10 -1 18 11 7 9 10 -8 16 -36 11 -19 15 24 5 52 -12 71 0 79 51 5 31 3 46 -9 59 -14 16 -14 18 6 32 13 8 19 19 15 26 -10 17 -26 15 -20 -3 4 -10 0 -15 -10 -15 -9 0 -21 10 -26 23 -6 15 -9 17 -9 6z"></path> <path d="M3646 4312 c-4 -7 -13 -9 -19 -5 -7 4 -6 -1 2 -11 15 -18 37 -8 29 15 -3 10 -6 10 -12 1z"></path> <path d="M3780 4310 c0 -5 5 -10 10 -10 6 0 10 5 10 10 0 6 -4 10 -10 10 -5 0 -10 -4 -10 -10z"></path> <path d="M2315 4299 c-9 -14 -2 -20 14 -10 8 6 9 11 3 15 -6 3 -14 1 -17 -5z"></path> <path d="M2576 4301 c-2 -3 -7 -23 -10 -44 -5 -32 -4 -36 8 -25 8 7 12 16 10 20 -3 4 2 18 11 31 14 21 14 24 0 24 -9 0 -17 -3 -19 -6z"></path> <path d="M3431 4301 c-8 -6 -9 -11 -3 -15 6 -3 14 -1 17 5 9 14 2 20 -14 10z"></path> <path d="M3560 4299 c0 -5 9 -9 20 -9 11 0 20 2 20 4 0 2 -9 6 -20 9 -11 3 -20 1 -20 -4z"></path> <path d="M3680 4295 c0 -8 2 -15 4 -15 2 0 6 7 10 15 3 8 1 15 -4 15 -6 0 -10 -7 -10 -15z"></path> <path d="M3932 4282 c14 -33 35 -57 23 -27 -4 11 -8 25 -8 32 0 7 -6 14 -13 17 -11 4 -11 0 -2 -22z"></path> <path d="M2695 4271 c8 -48 17 -58 27 -31 7 18 4 28 -12 44 l-21 21 6 -34z"></path> <path d="M3317 4288 c6 -11 43 -10 43 1 0 5 -11 8 -24 7 -13 0 -22 -4 -19 -8z"></path> <path d="M3370 4280 c0 -5 11 -17 25 -26 33 -22 32 -34 -5 -34 -16 0 -30 -5 -30 -11 0 -6 9 -9 19 -6 14 3 18 1 14 -10 -3 -8 -19 -17 -34 -20 -16 -3 -32 -10 -35 -14 -13 -22 -94 23 -94 53 0 4 -4 8 -8 8 -16 0 0 -59 20 -77 15 -13 34 -17 69 -16 56 3 94 25 108 66 6 15 17 30 26 33 8 3 15 13 15 22 0 12 -3 13 -12 4 -17 -17 -23 -15 -36 13 -11 24 -42 35 -42 15z"></path> <path d="M3820 4269 c-13 -9 -13 -10 0 -6 8 2 21 -3 28 -12 11 -14 11 -14 5 3 -4 13 -3 17 5 12 7 -4 12 -2 12 3 0 14 -31 14 -50 0z"></path> <path d="M2489 4253 c-13 -16 -12 -17 4 -4 16 13 21 21 13 21 -2 0 -10 -8 -17 -17z"></path> <path d="M3602 4245 c-14 -31 -15 -45 -4 -45 8 0 16 14 40 63 2 4 -3 7 -11 7 -7 0 -19 -11 -25 -25z"></path> <path d="M3662 4238 c-22 -35 -22 -44 2 -35 9 4 13 13 10 20 -3 8 2 17 10 20 9 4 16 11 16 17 0 20 -18 9 -38 -22z"></path> <path d="M3326 4245 c10 -8 24 -14 29 -14 6 0 1 6 -9 14 -11 8 -24 15 -30 15 -5 0 -1 -7 10 -15z"></path> <path d="M2884 4236 c11 -9 24 -16 30 -16 12 0 7 5 -24 19 -24 11 -24 11 -6 -3z"></path> <path d="M3473 4234 c-6 -17 13 -42 24 -30 4 4 1 11 -6 15 -7 5 -10 14 -7 20 4 6 5 11 1 11 -3 0 -8 -7 -12 -16z"></path> <path d="M3907 4239 c7 -7 15 -10 18 -7 3 3 -2 9 -12 12 -14 6 -15 5 -6 -5z"></path> <path d="M2730 4231 c0 -6 4 -12 8 -15 5 -3 9 1 9 9 0 8 -4 15 -9 15 -4 0 -8 -4 -8 -9z"></path> <path d="M2390 4205 c0 -8 4 -15 9 -15 5 0 11 7 15 15 3 9 0 15 -9 15 -8 0 -15 -7 -15 -15z"></path> <path d="M2430 4210 c0 -5 5 -10 10 -10 6 0 10 5 10 10 0 6 -4 10 -10 10 -5 0 -10 -4 -10 -10z"></path> <path d="M2664 4205 c-4 -8 -3 -27 1 -43 6 -24 8 -25 19 -10 8 11 23 15 48 13 24 -2 38 1 42 10 4 12 0 12 -21 2 -21 -9 -27 -9 -31 1 -3 10 -10 9 -29 -4 l-26 -16 5 31 c5 33 1 41 -8 16z"></path> <path d="M2685 4200 c-3 -5 -1 -10 4 -10 6 0 11 5 11 10 0 6 -2 10 -4 10 -3 0 -8 -4 -11 -10z"></path> <path d="M2797 4191 c-4 -17 -3 -21 5 -13 5 5 8 16 6 23 -3 8 -7 3 -11 -10z"></path> <path d="M3008 4203 c7 -3 16 -2 19 1 4 3 -2 6 -13 5 -11 0 -14 -3 -6 -6z"></path> <path d="M3325 4200 c3 -5 8 -10 11 -10 2 0 4 5 4 10 0 6 -5 10 -11 10 -5 0 -7 -4 -4 -10z"></path> <path d="M3950 4200 c-14 -9 -8 -60 7 -60 7 0 13 5 13 10 0 6 -4 10 -10 10 -5 0 -10 6 -10 14 0 8 7 13 16 12 9 0 19 4 21 10 4 12 -20 15 -37 4z"></path> <path d="M4364 4196 c-3 -8 -19 -19 -35 -25 -16 -5 -29 -15 -29 -21 0 -8 6 -8 20 0 14 8 20 8 20 -1 0 -6 -13 -16 -30 -22 -16 -6 -30 -17 -30 -24 0 -10 6 -9 25 3 30 19 34 5 6 -20 -12 -11 -25 -15 -33 -10 -10 6 -10 4 1 -9 20 -26 34 -21 70 23 32 41 54 120 32 120 -7 0 -14 -6 -17 -14z"></path> <path d="M3095 4190 c3 -5 11 -10 16 -10 6 0 7 5 4 10 -3 6 -11 10 -16 10 -6 0 -7 -4 -4 -10z"></path> <path d="M2632 4170 c-10 -17 -10 -20 3 -20 8 0 15 9 15 20 0 11 -1 20 -3 20 -1 0 -8 -9 -15 -20z"></path> <path d="M2965 4180 c-4 -6 -11 -8 -16 -4 -5 3 -9 2 -8 -3 3 -20 -2 -27 -12 -13 -8 12 -9 9 -4 -9 6 -20 4 -23 -10 -17 -14 5 -16 4 -6 -7 15 -19 -16 -46 -49 -41 -14 1 -19 0 -12 -2 6 -3 12 -12 12 -20 0 -19 9 -18 48 6 21 13 32 28 32 42 0 13 11 36 25 51 14 15 21 27 16 27 -5 0 -13 -5 -16 -10z"></path> <path d="M4035 4180 c19 -8 18 -9 -4 -9 -19 -1 -21 -4 -12 -15 8 -10 9 -16 1 -21 -5 -3 -10 -13 -10 -21 0 -8 4 -13 9 -10 5 4 12 0 15 -6 3 -7 3 -3 0 10 -4 17 1 29 20 46 30 25 25 36 -13 35 -24 0 -24 -1 -6 -9z"></path> <path d="M4116 4174 c-9 -24 -7 -28 9 -14 17 14 20 30 6 30 -5 0 -12 -7 -15 -16z"></path> <path d="M4154 4168 c-14 -16 -14 -19 -2 -10 14 11 17 10 20 -4 2 -14 6 -12 15 9 16 35 -5 38 -33 5z"></path> <path d="M2380 4164 c0 -8 5 -12 10 -9 6 3 10 10 10 16 0 5 -4 9 -10 9 -5 0 -10 -7 -10 -16z"></path> <path d="M2470 4174 c0 -15 27 -50 34 -43 4 3 -2 17 -13 30 -11 13 -20 19 -21 13z"></path> <path d="M3563 4173 c-16 -6 -17 -30 -2 -35 7 -2 7 -12 -2 -30 -20 -44 18 -120 70 -140 28 -10 120 0 101 12 -7 4 -21 5 -31 3 -28 -8 -82 21 -101 54 -21 37 -11 93 20 109 12 6 19 13 16 16 -8 9 -44 -3 -44 -15 0 -7 -4 -7 -12 1 -10 10 -10 15 2 22 16 10 4 12 -17 3z"></path> <path d="M2435 4160 c-3 -5 -1 -10 4 -10 6 0 11 5 11 10 0 6 -2 10 -4 10 -3 0 -8 -4 -11 -10z"></path> <path d="M2595 4160 c-4 -6 -11 -8 -16 -5 -5 4 -9 -1 -9 -9 0 -25 15 -26 27 0 11 24 10 33 -2 14z"></path> <path d="M2273 4133 c5 -12 14 -20 18 -17 5 3 9 -2 9 -10 0 -9 9 -16 20 -16 19 0 19 2 5 23 -8 13 -13 26 -10 29 3 3 -7 8 -23 10 -28 4 -29 3 -19 -19z"></path> <path d="M2746 4134 c-18 -18 -20 -30 -6 -39 6 -4 8 -11 5 -16 -4 -5 -1 -9 4 -9 15 0 14 13 -1 29 -11 10 -8 16 11 32 13 10 19 19 13 19 -6 0 -18 -7 -26 -16z"></path> <path d="M4190 4133 c0 -7 8 -13 18 -14 14 0 14 -2 -3 -9 -18 -8 -18 -9 6 -9 33 -1 41 7 29 30 -11 20 -50 22 -50 2z"></path> <path d="M2440 4129 c-13 -7 -12 -9 3 -9 20 0 23 -26 5 -34 -7 -3 0 -2 16 1 26 5 29 4 23 -16 -3 -11 -1 -24 4 -27 11 -6 1 -52 -15 -74 -10 -13 -9 -13 7 -1 9 7 17 20 17 27 0 26 15 14 32 -23 9 -21 17 -30 17 -21 1 9 -4 20 -9 23 -6 4 -8 10 -5 15 3 5 1 11 -5 15 -5 3 -10 13 -10 21 0 8 4 12 10 9 6 -3 7 1 4 9 -3 9 -10 16 -15 16 -5 0 -9 6 -9 14 0 8 -9 18 -20 21 -11 3 -20 13 -20 20 0 19 -13 25 -30 14z"></path> <path d="M4127 4123 c5 -13 3 -15 -13 -9 -18 7 -18 6 -3 -10 13 -12 21 -14 35 -5 11 6 13 11 7 11 -7 0 -13 7 -13 15 0 8 -4 15 -10 15 -5 0 -6 -8 -3 -17z"></path> <path d="M2550 4113 c0 -13 5 -23 10 -23 13 0 13 11 0 30 -8 12 -10 11 -10 -7z"></path> <path d="M3896 4113 c-6 -14 -5 -15 5 -6 7 7 10 15 7 18 -3 3 -9 -2 -12 -12z"></path> <path d="M4074 4114 c-4 -10 -9 -22 -11 -26 -2 -5 0 -8 6 -8 11 0 26 39 17 47 -3 3 -9 -3 -12 -13z"></path> <path d="M2615 4109 c-4 -6 -5 -12 -2 -15 2 -3 7 2 10 11 7 17 1 20 -8 4z"></path> <path d="M2825 4110 c-16 -7 -17 -9 -3 -9 9 -1 20 4 23 9 7 11 7 11 -20 0z"></path> <path d="M3635 4110 c3 -5 8 -10 11 -10 2 0 4 5 4 10 0 6 -5 10 -11 10 -5 0 -7 -4 -4 -10z"></path> <path d="M3956 4111 c-3 -5 4 -11 16 -14 30 -8 35 -1 9 12 -11 6 -22 7 -25 2z"></path> <path d="M2781 4086 c6 -13 22 -26 35 -29 32 -6 31 9 -2 17 -17 5 -24 12 -20 21 3 9 -1 15 -9 15 -12 0 -12 -5 -4 -24z"></path> <path d="M4237 4094 c-18 -10 -33 -12 -45 -5 -12 6 -23 5 -37 -6 -19 -14 -19 -14 7 -8 14 4 36 2 48 -5 28 -15 24 -61 -7 -75 -25 -11 -29 -20 -13 -30 6 -3 10 -1 10 5 0 6 4 9 9 6 5 -3 7 -15 4 -26 -4 -14 0 -20 11 -20 9 0 16 -4 16 -10 0 -5 -7 -10 -16 -10 -9 0 -34 -10 -55 -22 -31 -17 -39 -28 -39 -49 0 -24 5 -29 36 -35 61 -11 116 33 93 77 -5 10 -4 20 3 27 9 9 6 18 -11 36 -21 23 -22 26 -7 53 8 17 13 39 10 50 -3 12 -1 30 5 42 14 25 14 25 -22 5z m13 -223 c0 -24 -36 -51 -68 -51 -35 0 -24 31 18 52 45 22 50 22 50 -1z"></path> <path d="M2571 4071 c-12 -11 -18 -21 -14 -24 4 -3 16 6 26 19 22 29 18 31 -12 5z"></path> <path d="M2280 4071 c0 -10 37 -30 44 -24 14 14 4 28 -19 29 -14 1 -25 -1 -25 -5z"></path> <path d="M2340 4051 c-6 -12 -7 -21 -1 -21 10 0 24 30 17 37 -2 3 -9 -5 -16 -16z"></path> <path d="M2361 4029 c-48 -54 -50 -58 -40 -91 4 -16 5 -37 3 -46 -5 -13 -4 -14 4 -3 5 7 7 31 4 53 -4 34 -2 40 16 45 12 3 19 9 16 15 -9 14 15 38 32 31 15 -6 18 5 6 24 -5 7 -19 -2 -41 -28z"></path> <path d="M3826 4045 c4 -8 8 -15 10 -15 2 0 4 7 4 15 0 8 -4 15 -10 15 -5 0 -7 -7 -4 -15z"></path> <path d="M2426 4034 c-3 -9 -6 -25 -6 -37 0 -12 -9 -33 -20 -47 -11 -14 -19 -34 -19 -45 0 -13 6 -7 16 18 16 40 35 51 25 15 -3 -12 -1 -19 4 -15 9 5 18 127 10 127 -2 0 -7 -7 -10 -16z"></path> <path d="M3925 4039 c-4 -6 -5 -12 -2 -15 2 -3 7 2 10 11 7 17 1 20 -8 4z"></path> <path d="M4091 4034 c0 -11 3 -14 6 -6 3 7 2 16 -1 19 -3 4 -6 -2 -5 -13z"></path> <path d="M3720 4020 c-19 -11 -28 -19 -20 -19 8 0 26 8 40 19 31 25 25 25 -20 0z"></path> <path d="M4144 4029 c-3 -6 -2 -15 3 -20 11 -11 43 -1 43 13 0 6 -8 4 -17 -3 -15 -12 -16 -12 -10 4 7 19 -8 24 -19 6z"></path> <path d="M2666 3983 c-16 -47 -16 -48 3 -28 21 22 37 75 22 75 -5 0 -16 -21 -25 -47z"></path> <path d="M3507 4000 c3 -11 7 -20 9 -20 2 0 4 9 4 20 0 11 -4 20 -9 20 -5 0 -7 -9 -4 -20z"></path> <path d="M3848 3992 c13 -17 28 -35 34 -39 7 -3 2 8 -10 25 -13 17 -28 35 -34 39 -7 3 -2 -8 10 -25z"></path> <path d="M4051 4004 c0 -11 3 -14 6 -6 3 7 2 16 -1 19 -3 4 -6 -2 -5 -13z"></path> <path d="M2290 3999 c0 -5 5 -7 10 -4 6 3 10 8 10 11 0 2 -4 4 -10 4 -5 0 -10 -5 -10 -11z"></path> <path d="M3750 4006 c0 -2 7 -9 15 -16 9 -7 15 -8 15 -2 0 5 -7 12 -15 16 -8 3 -15 4 -15 2z"></path> <path d="M3991 3994 c0 -11 3 -14 6 -6 3 7 2 16 -1 19 -3 4 -6 -2 -5 -13z"></path> <path d="M4065 3974 c-35 -28 -50 -31 -41 -8 3 9 2 12 -5 9 -6 -4 -8 -14 -5 -22 5 -11 2 -13 -9 -9 -9 3 -13 2 -10 -4 12 -19 45 -10 72 19 24 25 30 27 42 14 11 -12 10 -16 -5 -28 -21 -15 -16 -29 5 -16 7 5 15 24 16 42 2 19 1 28 -2 21 -3 -8 -9 -10 -16 -3 -8 6 -22 1 -42 -15z"></path> <path d="M2611 3981 c-10 -6 -12 -20 -8 -45 3 -20 2 -36 -2 -36 -5 0 -17 -12 -26 -27 -14 -22 -9 -20 24 12 37 35 40 41 26 52 -13 9 -14 16 -5 32 12 23 11 25 -9 12z"></path> <path d="M3915 3980 c3 -5 8 -10 11 -10 2 0 4 5 4 10 0 6 -5 10 -11 10 -5 0 -7 -4 -4 -10z"></path> <path d="M2351 3954 c0 -11 3 -14 6 -6 3 7 2 16 -1 19 -3 4 -6 -2 -5 -13z"></path> <path d="M3948 3963 c7 -3 16 -2 19 1 4 3 -2 6 -13 5 -11 0 -14 -3 -6 -6z"></path> <path d="M3506 3943 c-6 -14 -5 -15 5 -6 7 7 10 15 7 18 -3 3 -9 -2 -12 -12z"></path> <path d="M4143 3934 c-10 -21 -9 -24 7 -24 22 0 33 25 17 39 -9 7 -16 3 -24 -15z"></path> <path d="M3350 3939 c0 -5 9 -9 19 -9 11 0 22 4 25 9 3 5 -6 9 -19 9 -14 0 -25 -4 -25 -9z"></path> <path d="M3415 3940 c8 -12 52 -13 59 -2 3 5 -11 9 -30 10 -20 1 -32 -3 -29 -8z"></path> <path d="M3940 3929 c0 -5 5 -7 10 -4 6 3 10 8 10 11 0 2 -4 4 -10 4 -5 0 -10 -5 -10 -11z"></path> <path d="M2443 3885 c-6 -25 -7 -45 -3 -45 11 0 28 67 20 79 -3 6 -11 -9 -17 -34z"></path> <path d="M2511 3914 c0 -11 3 -14 6 -6 3 7 2 16 -1 19 -3 4 -6 -2 -5 -13z"></path> <path d="M3742 3917 c7 -7 22 -16 33 -20 16 -6 15 -3 -5 13 -28 22 -49 27 -28 7z"></path> <path d="M3972 3904 c-7 -8 -12 -19 -10 -23 2 -5 11 2 21 15 19 26 10 33 -11 8z"></path> <path d="M2539 3875 c-15 -39 -30 -41 -40 -4 -4 13 -8 22 -9 19 -5 -14 -5 -90 0 -90 9 0 56 52 69 77 13 26 14 33 2 33 -5 0 -15 -16 -22 -35z"></path> <path d="M4052 3896 c-33 -19 -34 -22 -17 -36 9 -7 15 -9 13 -3 -2 6 8 20 22 31 27 23 18 27 -18 8z"></path> <path d="M3265 3880 c-3 -5 -1 -10 4 -10 6 0 11 5 11 10 0 6 -2 10 -4 10 -3 0 -8 -4 -11 -10z"></path> <path d="M3800 3876 c0 -2 7 -7 16 -10 8 -3 12 -2 9 4 -6 10 -25 14 -25 6z"></path> <path d="M4083 3873 c-14 -5 -18 -33 -5 -33 4 0 14 5 22 10 17 11 2 30 -17 23z"></path> <path d="M3765 3860 c3 -5 8 -10 11 -10 2 0 4 5 4 10 0 6 -5 10 -11 10 -5 0 -7 -4 -4 -10z"></path> <path d="M2401 3828 c-11 -35 -10 -63 4 -75 4 -4 5 2 2 15 -3 13 -1 37 4 54 12 43 4 48 -10 6z"></path> <path d="M2840 3849 c-73 -19 -166 -53 -181 -65 -8 -8 -21 -14 -27 -14 -7 0 -12 -4 -12 -9 0 -6 33 5 73 23 39 18 99 38 132 45 33 7 69 17 80 21 18 8 18 9 -5 8 -14 0 -41 -4 -60 -9z"></path> <path d="M3572 3855 c3 -3 16 -8 28 -10 12 -2 20 -1 16 2 -4 4 -16 8 -28 10 -12 2 -19 1 -16 -2z"></path> <path d="M3964 3812 c-1 -33 0 -40 5 -22 l7 25 8 -22 c4 -13 4 -33 1 -44 -4 -13 -3 -19 2 -16 11 7 -17 -85 -28 -93 -12 -8 -38 -152 -45 -246 -4 -49 -12 -103 -19 -120 -7 -17 -18 -64 -25 -105 -19 -118 -20 -119 -118 -167 -48 -24 -98 -45 -111 -47 -14 -3 -29 -9 -35 -15 -5 -5 -15 -10 -20 -10 -6 0 -4 5 4 10 9 6 10 10 3 10 -6 0 -15 -5 -18 -11 -4 -6 -14 -8 -22 -5 -8 3 -11 1 -8 -4 7 -11 -54 -14 -230 -12 -113 2 -185 10 -185 21 0 7 -89 29 -345 84 -138 30 -203 64 -282 145 -66 67 -85 68 -32 1 50 -63 165 -127 294 -165 63 -18 134 -33 157 -33 24 -1 68 -7 98 -16 l55 -15 -50 4 c-48 4 -47 4 15 -10 36 -8 83 -18 106 -24 182 -42 466 -11 613 67 24 13 46 22 47 20 5 -5 -33 -149 -47 -179 -6 -15 -15 -25 -20 -23 -4 3 -31 -4 -59 -15 -71 -28 -224 -43 -355 -36 -94 6 -358 60 -453 93 -13 5 -14 3 -6 -6 17 -18 304 -90 361 -91 33 0 51 -14 33 -25 -5 -3 -10 -11 -10 -17 0 -6 10 -3 23 8 19 18 33 20 114 16 52 -2 90 -8 87 -13 -3 -5 -1 -9 4 -9 6 0 12 6 15 14 3 7 27 16 54 19 26 4 58 9 71 13 19 6 22 3 18 -17 -3 -13 -5 -51 -5 -85 -1 -50 -6 -66 -26 -90 -14 -16 -25 -31 -25 -35 0 -7 -93 -66 -94 -59 -1 3 -15 -5 -32 -17 -16 -12 -42 -25 -56 -28 -15 -4 -29 -13 -32 -21 -3 -8 -15 -14 -26 -14 -11 0 -20 -7 -20 -15 0 -12 -13 -15 -59 -15 -33 0 -63 5 -66 10 -3 6 -19 10 -34 10 -29 0 -177 47 -226 72 -17 9 -41 19 -55 22 l-25 7 24 -20 c13 -12 30 -21 38 -21 8 0 12 -4 9 -9 -6 -10 109 -121 125 -121 16 0 11 5 -56 60 -36 29 -64 54 -62 57 3 2 32 -7 66 -21 33 -13 61 -23 61 -20 0 3 9 0 21 -6 11 -6 68 -19 127 -29 98 -15 107 -19 110 -40 3 -20 1 -22 -19 -16 -31 10 -121 9 -185 -3 -61 -10 -82 -4 -151 49 -59 44 -77 51 -45 16 12 -13 19 -27 15 -32 -5 -4 -3 -5 3 -2 6 4 22 -3 35 -14 34 -30 70 -46 99 -43 198 17 210 17 233 -2 18 -16 20 -16 8 -1 -17 22 -3 22 22 -1 11 -9 17 -11 13 -4 -12 20 4 14 25 -10 34 -39 59 -101 59 -148 0 -32 3 -41 10 -30 5 8 7 34 5 57 -2 25 1 46 7 49 7 5 9 1 5 -9 -7 -19 1 -21 22 -8 12 8 6 18 -30 53 -24 24 -61 58 -82 74 -35 29 -37 33 -26 57 8 18 40 40 107 73 64 32 112 64 148 100 l52 53 1 -210 c0 -128 -3 -209 -9 -209 -6 0 -10 4 -10 9 0 16 -59 33 -87 26 -28 -7 -63 -32 -63 -45 0 -4 19 -4 42 0 60 11 68 6 56 -38 -14 -54 -21 -102 -14 -102 12 0 46 81 46 110 0 31 20 43 21 13 0 -15 2 -15 15 4 18 25 8 25 184 -8 63 -12 139 -32 167 -45 29 -12 74 -26 100 -29 l48 -7 -30 21 c-16 12 -43 21 -59 21 -16 0 -44 11 -61 25 -18 13 -36 21 -39 17 -4 -3 -4 1 -1 10 5 12 -3 21 -28 33 -19 9 -43 24 -53 33 -11 9 -32 24 -47 32 -17 8 -24 16 -16 19 7 2 -3 9 -22 15 -36 12 -48 38 -29 66 8 13 18 12 80 -9 39 -13 106 -45 150 -71 l79 -47 -1 47 c0 26 -4 53 -10 61 -7 10 -8 7 -4 -12 4 -17 1 -31 -9 -39 -11 -9 -29 -4 -91 30 -42 24 -90 46 -108 51 -17 4 -41 11 -52 14 -16 5 -29 -1 -48 -22 -14 -15 -26 -33 -26 -40 0 -15 46 -51 87 -68 36 -15 132 -86 132 -98 1 -5 -3 -5 -9 -2 -13 8 -195 35 -236 35 l-34 0 0 203 c0 111 -1 245 -2 297 -2 75 0 94 10 92 8 -1 11 2 8 7 -10 16 15 25 59 22 l42 -2 28 103 c15 57 37 123 50 148 12 25 28 79 35 120 7 41 19 94 26 116 8 23 21 102 29 175 20 184 61 289 112 289 11 0 19 8 20 23 1 12 4 31 5 42 3 16 -2 19 -24 17 -31 -4 -39 14 -10 21 16 4 16 5 0 6 -10 0 -18 6 -18 11 0 6 -5 10 -11 10 -8 0 -8 -5 1 -15 9 -11 9 -15 1 -15 -9 0 -9 -5 -1 -20 8 -15 17 -19 31 -15 25 8 25 -9 -1 -35 -25 -25 -37 -25 -43 -2 -3 9 -10 38 -17 65 -7 26 -15 47 -19 47 -3 0 -7 -21 -7 -48z"></path> <path d="M3160 3840 c-24 -8 -24 -8 7 -9 17 -1 35 4 38 9 7 11 -9 11 -45 0z"></path> <path d="M3358 3843 c7 -3 16 -2 19 1 4 3 -2 6 -13 5 -11 0 -14 -3 -6 -6z"></path> <path d="M4100 3830 c-9 -6 -10 -10 -3 -10 6 0 15 5 18 10 8 12 4 12 -15 0z"></path> <path d="M2432 3817 c-4 -38 -18 -76 -39 -107 -12 -19 -23 -39 -23 -44 0 -5 13 11 30 35 16 24 30 52 30 62 0 10 5 27 10 37 6 10 6 21 2 24 -5 3 -9 0 -10 -7z"></path> <path d="M3588 3808 c5 -5 16 -8 23 -6 8 3 3 7 -10 11 -17 4 -21 3 -13 -5z"></path> <path d="M2450 3790 c-6 -11 -7 -20 -2 -20 6 0 12 9 15 20 3 11 3 20 1 20 -2 0 -8 -9 -14 -20z"></path> <path d="M2357 3793 c-4 -3 -7 -13 -7 -22 1 -13 3 -13 11 2 11 19 8 33 -4 20z"></path> <path d="M3205 3780 c-16 -7 -17 -9 -3 -9 9 -1 20 4 23 9 7 11 7 11 -20 0z"></path> <path d="M3088 3773 c6 -2 18 -2 25 0 6 3 1 5 -13 5 -14 0 -19 -2 -12 -5z"></path> <path d="M3260 3775 c0 -7 30 -13 34 -7 3 4 -4 9 -15 9 -10 1 -19 0 -19 -2z"></path> <path d="M3454 3770 c-11 -4 9 -10 48 -14 74 -7 211 -40 245 -58 13 -6 25 -9 28 -6 7 7 -121 59 -155 63 -14 2 -53 8 -86 12 -34 5 -70 6 -80 3z"></path> <path d="M4110 3770 c0 -5 5 -10 11 -10 5 0 7 5 4 10 -3 6 -8 10 -11 10 -2 0 -4 -4 -4 -10z"></path> <path d="M2965 3761 c-3 -6 6 -8 22 -5 37 7 42 14 10 14 -14 0 -28 -4 -32 -9z"></path> <path d="M2900 3750 c-20 -6 -21 -8 -5 -8 11 0 29 3 40 8 25 11 -1 11 -35 0z"></path> <path d="M2370 3739 c0 -5 5 -7 10 -4 6 3 10 8 10 11 0 2 -4 4 -10 4 -5 0 -10 -5 -10 -11z"></path> <path d="M3767 3739 c7 -7 15 -10 18 -7 3 3 -2 9 -12 12 -14 6 -15 5 -6 -5z"></path> <path d="M2534 3715 c-10 -8 -14 -14 -9 -14 6 0 19 6 29 14 11 8 15 15 10 15 -6 0 -19 -7 -30 -15z"></path> <path d="M2995 3720 c-3 -6 1 -7 9 -4 18 7 21 14 7 14 -6 0 -13 -4 -16 -10z"></path> <path d="M3214 3719 c-3 -6 -1 -16 5 -22 9 -9 10 -7 5 7 -6 16 -4 18 10 13 10 -4 15 -3 11 3 -8 13 -22 13 -31 -1z"></path> <path d="M3326 3713 c-6 -14 -5 -15 5 -6 7 7 10 15 7 18 -3 3 -9 -2 -12 -12z"></path> <path d="M3365 3710 c-19 -8 -19 -9 3 -9 12 -1 22 4 22 9 0 6 -1 10 -2 9 -2 0 -12 -4 -23 -9z"></path> <path d="M3526 3688 c7 -12 44 -10 44 2 0 5 -11 9 -24 8 -14 -1 -22 -6 -20 -10z"></path> <path d="M3800 3671 c0 -6 5 -13 12 -17 6 -4 8 -3 4 4 -3 5 0 13 6 15 8 3 6 6 -4 6 -10 1 -18 -3 -18 -8z"></path> <path d="M2560 3639 c0 -5 5 -7 10 -4 6 3 10 8 10 11 0 2 -4 4 -10 4 -5 0 -10 -5 -10 -11z"></path> <path d="M2816 3642 c-3 -5 1 -9 9 -9 8 0 12 4 9 9 -3 4 -7 8 -9 8 -2 0 -6 -4 -9 -8z"></path> <path d="M3723 3630 c1 -11 5 -20 9 -20 4 0 8 9 8 20 0 11 -4 20 -9 20 -6 0 -9 -9 -8 -20z"></path> <path d="M3000 3619 c-154 -21 -267 -46 -277 -62 -4 -7 0 -8 13 -3 23 9 149 32 219 41 28 3 82 11 120 17 75 13 351 17 400 6 63 -13 85 -20 85 -29 0 -4 11 -19 25 -33 l24 -24 -6 29 c-5 26 -3 28 13 23 11 -4 24 -10 29 -13 11 -6 17 -7 55 -10 24 -2 24 -2 6 -16 -11 -9 -14 -15 -7 -15 7 0 19 -7 27 -15 18 -17 34 -20 34 -4 0 5 -4 8 -9 5 -10 -7 -37 22 -28 30 3 4 27 -5 53 -20 56 -31 63 -32 39 -6 -9 10 -20 19 -24 18 -13 -3 -81 32 -81 42 0 6 -6 10 -12 9 -7 -1 -20 0 -28 3 -128 47 -437 60 -670 27z"></path> <path d="M2496 3604 c-15 -14 -26 -28 -23 -31 3 -3 13 2 22 10 8 9 24 19 35 22 11 3 20 11 20 16 0 16 -24 9 -54 -17z"></path> <path d="M3269 3600 c-20 -3 -44 -5 -53 -4 -9 1 -16 -2 -16 -8 0 -6 12 -8 27 -5 15 3 68 1 117 -3 50 -5 92 -7 95 -4 8 8 -6 15 -44 19 -21 3 -50 7 -64 9 -14 2 -42 0 -62 -4z"></path> <path d="M3764 3595 c11 -8 22 -12 25 -9 6 6 -19 24 -34 24 -5 -1 -1 -7 9 -15z"></path> <path d="M3170 3590 c0 -5 5 -10 11 -10 5 0 7 5 4 10 -3 6 -8 10 -11 10 -2 0 -4 -4 -4 -10z"></path> <path d="M3450 3576 c0 -9 7 -16 16 -16 9 0 14 5 12 12 -6 18 -28 21 -28 4z"></path> <path d="M3490 3576 c0 -9 5 -16 10 -16 6 0 10 4 10 9 0 6 -4 13 -10 16 -5 3 -10 -1 -10 -9z"></path> <path d="M2867 3554 c-2 -2 -48 -6 -102 -9 -70 -3 -106 -10 -125 -22 -83 -54 -111 -75 -106 -80 3 -3 20 6 39 20 64 48 105 60 227 63 81 2 117 -1 122 -9 6 -9 10 -9 17 2 5 7 14 10 20 7 6 -4 11 -3 11 2 0 9 -96 33 -103 26z"></path> <path d="M3398 3519 c-10 -5 -18 -20 -17 -32 0 -15 2 -17 6 -7 9 23 18 26 63 22 24 -3 40 -9 40 -17 0 -7 7 -16 16 -19 15 -6 15 -4 3 10 -13 15 -10 15 21 -1 19 -10 37 -21 40 -24 3 -3 19 -7 35 -8 37 -2 109 -14 114 -19 5 -5 31 16 31 26 0 4 -33 8 -72 10 -40 1 -79 2 -85 3 -7 0 -15 9 -19 20 -4 12 -12 17 -25 14 -10 -3 -23 1 -30 9 -6 8 -15 12 -19 9 -5 -3 -11 -1 -15 5 -8 13 -65 12 -87 -1z"></path> <path d="M3612 3511 c2 -8 15 -21 29 -30 19 -11 21 -12 9 0 -8 8 -21 21 -29 29 -11 12 -12 12 -9 1z"></path> <path d="M2970 3501 c14 -5 42 -9 62 -10 20 -1 38 -5 40 -10 2 -5 9 -3 16 5 11 12 8 14 -16 14 -16 0 -51 2 -78 5 -36 3 -42 2 -24 -4z"></path> <path d="M3835 3490 c-3 -5 -1 -10 4 -10 6 0 11 5 11 10 0 6 -2 10 -4 10 -3 0 -8 -4 -11 -10z"></path> <path d="M2735 3460 l-40 -5 40 -7 c56 -10 281 -22 275 -15 -4 5 -67 14 -210 30 -14 2 -43 1 -65 -3z"></path> <path d="M3790 3460 c0 -5 5 -10 11 -10 5 0 7 5 4 10 -3 6 -8 10 -11 10 -2 0 -4 -4 -4 -10z"></path> <path d="M2593 3454 c9 -9 67 -11 67 -2 0 4 -16 8 -37 8 -20 0 -34 -3 -30 -6z"></path> <path d="M2466 3405 c-9 -14 -14 -30 -11 -34 3 -5 -1 -12 -7 -14 -7 -3 -3 -6 8 -6 14 -1 24 7 27 20 5 19 10 21 39 14 18 -4 69 -11 113 -15 79 -8 226 -31 318 -50 27 -6 63 -10 80 -9 65 2 -209 52 -428 79 -61 7 -104 18 -111 26 -10 12 -14 10 -28 -11z"></path> <path d="M3437 3414 c4 -11 8 -12 13 -4 5 9 9 9 14 1 9 -14 26 -14 26 0 0 5 -4 7 -10 4 -5 -3 -10 -1 -10 4 0 6 -9 11 -20 11 -14 0 -18 -5 -13 -16z"></path> <path d="M3564 3388 c-4 -6 -3 -8 3 -5 5 3 23 -3 40 -13 26 -15 32 -16 37 -5 6 18 -7 27 -27 19 -8 -3 -18 -1 -22 5 -8 14 -22 14 -31 -1z"></path> <path d="M3418 3383 c7 -3 16 -2 19 1 4 3 -2 6 -13 5 -11 0 -14 -3 -6 -6z"></path> <path d="M3450 3382 c0 -5 7 -9 15 -9 8 0 12 4 9 9 -3 4 -9 8 -15 8 -5 0 -9 -4 -9 -8z"></path> <path d="M3685 3370 c26 -11 45 -12 45 -2 0 4 -15 8 -33 9 -26 1 -28 0 -12 -7z"></path> <path d="M3508 3363 c6 -2 18 -2 25 0 6 3 1 5 -13 5 -14 0 -19 -2 -12 -5z"></path> <path d="M3370 3350 c0 -5 7 -7 15 -4 8 4 15 8 15 10 0 2 -7 4 -15 4 -8 0 -15 -4 -15 -10z"></path> <path d="M2640 3345 c0 -9 95 -52 150 -68 30 -8 107 -27 170 -42 63 -15 121 -29 128 -32 6 -2 12 0 12 6 0 6 -3 10 -7 9 -5 -1 -33 5 -63 14 -30 8 -80 21 -110 28 -68 15 -206 59 -240 77 -26 13 -40 16 -40 8z"></path> <path d="M2496 3331 c5 -6 30 -19 57 -30 38 -17 47 -18 47 -6 0 8 -12 17 -27 21 -16 3 -38 10 -51 15 -29 12 -39 12 -26 0z"></path> <path d="M3506 3331 c12 -13 224 -22 224 -9 0 4 -35 8 -77 8 -43 0 -96 3 -118 6 -30 5 -37 4 -29 -5z"></path> <path d="M3360 3314 c0 -14 20 -40 20 -27 0 6 9 11 20 10 11 -1 20 -5 20 -9 0 -15 48 -8 54 7 3 8 2 15 -2 15 -4 0 -31 3 -59 6 -29 4 -53 2 -53 -2z"></path> <path d="M3758 3313 c6 -2 18 -2 25 0 6 3 1 5 -13 5 -14 0 -19 -2 -12 -5z"></path> <path d="M3520 3288 c0 -11 28 -10 35 1 3 6 -4 9 -15 8 -11 -1 -20 -5 -20 -9z"></path> <path d="M3600 3290 c-13 -8 -12 -10 3 -10 9 0 17 5 17 10 0 12 -1 12 -20 0z"></path> <path d="M3688 3283 c7 -3 16 -2 19 1 4 3 -2 6 -13 5 -11 0 -14 -3 -6 -6z"></path> <path d="M3755 3280 c-4 -6 2 -9 14 -7 29 4 39 17 13 17 -11 0 -24 -5 -27 -10z"></path> <path d="M3398 3253 c17 -2 47 -2 65 0 17 2 3 4 -33 4 -36 0 -50 -2 -32 -4z"></path> <path d="M3516 3239 c-16 -5 -33 -6 -38 -3 -4 3 -8 1 -8 -4 0 -5 33 -8 73 -6 39 1 98 3 130 3 31 1 57 4 57 9 0 10 -178 11 -214 1z"></path> <path d="M3753 3233 c9 -2 23 -2 30 0 6 3 -1 5 -18 5 -16 0 -22 -2 -12 -5z"></path> <path d="M3376 3212 c-3 -5 1 -9 9 -9 8 0 15 4 15 9 0 4 -4 8 -9 8 -6 0 -12 -4 -15 -8z"></path> <path d="M3138 3203 c7 -3 16 -2 19 1 4 3 -2 6 -13 5 -11 0 -14 -3 -6 -6z"></path> <path d="M3790 3190 c-8 -6 -10 -10 -5 -11 6 0 1 -4 -10 -9 -15 -7 -16 -9 -4 -9 16 -1 46 26 38 34 -3 2 -11 0 -19 -5z"></path> <path d="M3553 3183 c-23 -9 -14 -25 9 -17 13 4 36 7 53 6 21 -1 25 2 15 8 -16 10 -57 12 -77 3z"></path> <path d="M3655 3180 c3 -5 8 -10 11 -10 2 0 4 5 4 10 0 6 -5 10 -11 10 -5 0 -7 -4 -4 -10z"></path> <path d="M3380 3159 c0 -11 27 -12 34 -1 2 4 -4 9 -15 9 -10 1 -19 -2 -19 -8z"></path> <path d="M3458 3163 c6 -2 18 -2 25 0 6 3 1 5 -13 5 -14 0 -19 -2 -12 -5z"></path> <path d="M2493 3106 c31 -30 57 -59 57 -64 0 -9 54 -52 66 -52 3 0 21 -7 40 -16 18 -9 39 -14 46 -12 7 3 -4 10 -24 17 -20 7 -49 23 -65 36 -15 13 -62 52 -103 86 l-75 61 58 -56z"></path> <path d="M3735 3150 c-3 -5 -1 -10 4 -10 6 0 11 5 11 10 0 6 -2 10 -4 10 -3 0 -8 -4 -11 -10z"></path> <path d="M3170 3126 c0 -2 9 -6 20 -9 11 -3 18 -1 14 4 -5 9 -34 13 -34 5z"></path> <path d="M3585 3120 c3 -5 8 -10 11 -10 2 0 4 5 4 10 0 6 -5 10 -11 10 -5 0 -7 -4 -4 -10z"></path> <path d="M3383 3113 c-7 -2 -13 -12 -13 -21 0 -13 -2 -14 -9 -4 -7 11 -11 11 -24 -2 -11 -12 -17 -13 -20 -3 -4 9 -6 9 -6 0 -1 -18 20 -27 29 -13 10 16 33 3 24 -13 -5 -9 -4 -9 5 -1 7 6 14 20 16 30 1 11 8 18 14 17 6 -2 11 2 11 7 0 11 -7 12 -27 3z"></path> <path d="M3840 3114 c0 -9 -61 -42 -116 -63 -17 -7 -56 -13 -87 -14 -31 -1 -57 -5 -57 -9 0 -4 9 -5 20 -3 11 2 20 0 20 -5 0 -11 39 -5 115 16 51 14 125 67 112 80 -4 4 -7 3 -7 -2z"></path> <path d="M3194 3081 c3 -5 15 -7 26 -4 28 7 25 13 -6 13 -14 0 -23 -4 -20 -9z"></path> <path d="M3250 3079 c0 -5 11 -9 25 -9 14 0 25 2 25 4 0 2 -11 6 -25 8 -14 3 -25 1 -25 -3z"></path> <path d="M2911 3072 c-66 -22 360 -72 439 -52 25 6 66 13 91 15 25 3 57 9 70 15 28 11 -33 6 -140 -12 -35 -6 -93 -8 -130 -5 -104 10 -232 26 -276 35 -22 5 -47 6 -54 4z"></path> <path d="M3560 3070 c-20 -6 -21 -8 -5 -8 11 0 29 3 40 8 25 11 -1 11 -35 0z"></path> <path d="M3545 3020 c3 -5 8 -10 11 -10 2 0 4 5 4 10 0 6 -5 10 -11 10 -5 0 -7 -4 -4 -10z"></path> <path d="M3150 2999 c0 -5 10 -9 23 -10 12 0 31 -2 42 -5 11 -2 58 -6 106 -8 70 -3 91 0 120 16 l34 19 -55 -8 c-62 -9 -164 -9 -227 -1 -24 3 -43 1 -43 -3z"></path> <path d="M2777 2959 c7 -7 15 -10 18 -7 3 3 -2 9 -12 12 -14 6 -15 5 -6 -5z"></path> <path d="M2746 2941 c5 -5 20 -12 34 -15 l25 -7 -25 15 c-28 17 -50 21 -34 7z"></path> <path d="M2848 2923 c7 -3 16 -2 19 1 4 3 -2 6 -13 5 -11 0 -14 -3 -6 -6z"></path> <path d="M2940 2910 c0 -5 9 -10 21 -10 11 0 17 5 14 10 -3 6 -13 10 -21 10 -8 0 -14 -4 -14 -10z"></path> <path d="M2996 2897 c3 -10 9 -15 12 -12 3 3 0 11 -7 18 -10 9 -11 8 -5 -6z"></path> <path d="M3598 2883 c7 -3 16 -2 19 1 4 3 -2 6 -13 5 -11 0 -14 -3 -6 -6z"></path> <path d="M3165 2870 c3 -5 8 -10 11 -10 2 0 4 5 4 10 0 6 -5 10 -11 10 -5 0 -7 -4 -4 -10z"></path> <path d="M3193 2866 c-4 -5 -1 -6 5 -2 7 4 12 2 12 -3 0 -6 18 -11 40 -11 22 0 40 4 40 9 0 12 -90 19 -97 7z"></path> <path d="M3550 2870 c-72 -42 -393 -64 -513 -36 -82 19 -106 20 -55 1 71 -26 194 -38 306 -30 59 5 124 9 145 9 20 1 37 4 37 7 0 4 11 10 25 13 28 7 96 46 80 46 -5 0 -17 -5 -25 -10z"></path> <path d="M3305 2860 c-7 -12 48 -12 85 0 20 6 14 8 -27 9 -28 1 -55 -3 -58 -9z"></path> <path d="M3428 2863 c7 -3 16 -2 19 1 4 3 -2 6 -13 5 -11 0 -14 -3 -6 -6z"></path> <path d="M2620 2846 c0 -2 7 -7 16 -10 8 -3 12 -2 9 4 -6 10 -25 14 -25 6z"></path> <path d="M2596 2828 c9 -23 160 -125 169 -116 3 2 -14 15 -36 29 -22 13 -58 41 -81 62 -41 37 -62 47 -52 25z"></path> <path d="M2675 2808 c11 -6 22 -14 25 -18 9 -13 72 -42 78 -36 3 3 1 6 -5 6 -5 0 -30 13 -54 30 -24 16 -48 30 -54 30 -5 -1 -1 -6 10 -12z"></path> <path d="M3555 2799 c-16 -4 -70 -7 -120 -8 -67 -1 -86 -4 -72 -12 22 -13 205 -5 220 10 15 15 7 18 -28 10z"></path> <path d="M3290 2780 c-13 -9 -13 -10 0 -9 8 0 24 4 35 9 l20 9 -20 0 c-11 0 -27 -4 -35 -9z"></path> <path d="M3853 2763 c37 -2 96 -2 130 0 34 2 4 3 -68 3 -71 0 -99 -1 -62 -3z"></path> <path d="M3820 2739 c-66 -7 -58 -9 37 -12 39 -1 69 -5 67 -9 -3 -4 0 -8 5 -8 6 0 11 5 11 10 0 6 14 10 30 10 17 0 30 4 30 10 0 10 -83 9 -180 -1z"></path> <path d="M4010 2742 c0 -5 9 -12 20 -15 16 -4 20 -13 19 -44 -3 -97 5 -183 15 -180 7 2 11 45 11 123 l0 119 -32 3 c-18 2 -33 -1 -33 -6z"></path> <path d="M2661 2737 c2 -2 20 -14 39 -26 l35 -23 -30 26 c-16 14 -34 26 -39 26 -5 0 -7 -1 -5 -3z"></path> <path d="M2815 2720 c4 -6 11 -8 16 -5 14 9 11 15 -7 15 -8 0 -12 -5 -9 -10z"></path> <path d="M2846 2713 c-3 -3 20 -17 51 -29 64 -26 85 -26 26 0 -21 9 -45 21 -54 26 -9 5 -20 6 -23 3z"></path> <path d="M2780 2702 c0 -5 11 -14 25 -20 14 -6 25 -10 25 -8 0 2 -11 11 -25 20 -14 9 -25 13 -25 8z"></path> <path d="M3815 2700 c-58 -24 -101 -113 -76 -156 8 -16 10 -9 11 32 0 47 2 52 25 58 14 4 30 4 35 1 6 -4 10 -1 10 4 0 6 -10 11 -21 11 -18 0 -19 2 -9 15 19 23 34 18 48 -15 12 -26 15 -28 29 -15 20 21 25 19 18 -7 -5 -18 -4 -20 4 -8 6 8 8 25 5 37 -5 18 -2 21 15 16 21 -5 71 -57 71 -73 0 -5 -5 -12 -11 -16 -7 -4 -8 -9 -1 -13 7 -4 5 -18 -5 -41 -14 -32 -16 -33 -23 -15 -8 18 -9 18 -9 2 -1 -12 -5 -16 -13 -11 -10 6 -10 5 -1 -8 7 -8 10 -18 6 -21 -3 -4 -2 -7 4 -7 16 0 54 46 62 76 10 37 -2 89 -26 116 -35 40 -102 57 -148 38z m55 -29 c0 -11 -4 -23 -10 -26 -6 -4 -10 5 -10 19 0 14 5 26 10 26 6 0 10 -9 10 -19z"></path> <path d="M2740 2685 c0 -6 76 -45 87 -45 4 0 -12 11 -36 25 -44 26 -51 28 -51 20z"></path> <path d="M3530 2675 c-11 -13 -10 -14 4 -9 9 3 16 10 16 15 0 13 -6 11 -20 -6z"></path> <path d="M2740 2661 c14 -11 36 -29 50 -39 34 -25 236 -132 251 -132 16 0 -53 46 -82 55 -12 4 -46 23 -75 41 -29 19 -55 34 -58 34 -3 0 -29 14 -58 30 -29 17 -42 22 -28 11z"></path> <path d="M3230 2669 c0 -5 5 -7 10 -4 6 3 10 8 10 11 0 2 -4 4 -10 4 -5 0 -10 -5 -10 -11z"></path> <path d="M3380 2660 c0 -5 5 -10 10 -10 6 0 10 5 10 10 0 6 -4 10 -10 10 -5 0 -10 -4 -10 -10z"></path> <path d="M3419 2659 c-10 -6 -4 -8 18 -7 18 1 30 4 27 7 -9 9 -31 9 -45 0z"></path> <path d="M2850 2630 c8 -5 20 -10 25 -10 6 0 3 5 -5 10 -8 5 -19 10 -25 10 -5 0 -3 -5 5 -10z"></path> <path d="M3200 2621 c0 -25 6 -27 13 -6 4 8 2 17 -3 20 -6 4 -10 -3 -10 -14z"></path> <path d="M3712 2594 c-12 -55 -2 -86 40 -126 28 -27 85 -45 110 -35 7 3 0 6 -16 6 -39 1 -87 33 -110 71 -14 25 -17 44 -13 81 8 62 2 63 -11 3z"></path> <path d="M3926 2603 c-6 -14 -5 -15 5 -6 7 7 10 15 7 18 -3 3 -9 -2 -12 -12z"></path> <path d="M3196 2534 c-5 -14 -4 -15 9 -4 17 14 19 20 6 20 -5 0 -12 -7 -15 -16z"></path> <path d="M3788 2543 c7 -3 16 -2 19 1 4 3 -2 6 -13 5 -11 0 -14 -3 -6 -6z"></path> <path d="M3880 2531 c0 -11 4 -22 9 -25 5 -4 8 2 7 11 -2 10 2 21 8 25 7 5 4 8 -6 8 -11 0 -18 -8 -18 -19z"></path> <path d="M2830 2537 c0 -15 236 -128 264 -127 6 1 -5 9 -24 20 -42 23 -36 26 13 5 41 -17 47 -18 47 -7 0 4 -22 15 -49 25 -56 20 -64 21 -56 7 6 -10 -92 31 -128 54 -25 16 -67 30 -67 23z"></path> <path d="M3759 2519 c-13 -8 -6 -11 17 -8 4 0 10 -5 14 -11 4 -7 10 -8 13 -3 9 14 -28 33 -44 22z"></path> <path d="M2967 2499 c7 -7 15 -10 18 -7 3 3 -2 9 -12 12 -14 6 -15 5 -6 -5z"></path> <path d="M3088 2503 c6 -2 18 -2 25 0 6 3 1 5 -13 5 -14 0 -19 -2 -12 -5z"></path> <path d="M3176 2499 c4 -8 -27 -36 -33 -31 -3 2 -7 1 -10 -1 -7 -8 20 -3 35 6 7 5 12 4 12 -2 0 -6 5 -11 11 -11 6 0 9 7 5 15 -4 11 1 15 19 15 14 0 25 4 25 8 0 5 -15 8 -34 8 -19 0 -32 -4 -30 -7z"></path> <path d="M3250 2500 c0 -12 8 -12 35 0 18 8 17 9 -7 9 -16 1 -28 -3 -28 -9z"></path> <path d="M4081 2501 c-10 -7 -12 -26 -7 -82 3 -41 9 -116 12 -166 4 -51 10 -93 14 -93 14 0 16 123 3 180 -15 68 -17 147 -3 155 6 4 18 1 27 -7 14 -11 16 -11 11 2 -5 18 -37 24 -57 11z"></path> <path d="M2073 2452 c-21 -20 -49 -58 -63 -84 -22 -43 -29 -48 -97 -70 -44 -15 -76 -21 -82 -15 -6 6 -24 4 -46 -3 -20 -7 -48 -10 -62 -7 -13 2 -41 0 -61 -5 -20 -6 -102 -14 -182 -18 -117 -6 -154 -11 -190 -28 -97 -46 -136 -87 -165 -174 -23 -70 -6 -161 39 -221 42 -56 163 -145 201 -149 28 -3 30 -6 37 -56 5 -29 13 -62 18 -72 6 -10 10 -54 10 -98 0 -44 3 -94 6 -111 7 -32 58 -91 80 -91 7 0 18 -16 24 -35 9 -27 17 -35 36 -35 13 0 24 5 24 12 0 6 -3 8 -7 5 -7 -8 -33 11 -33 25 0 6 8 7 18 4 10 -4 7 2 -8 14 -14 11 -28 20 -31 20 -15 0 -24 81 -17 150 7 74 3 128 -9 116 -8 -8 -11 -38 -13 -138 -1 -43 -5 -78 -10 -78 -25 0 -32 34 -28 145 1 63 0 115 -4 115 -5 0 -8 -4 -8 -10 0 -5 -5 -10 -11 -10 -7 0 -10 27 -8 84 2 46 0 82 -4 79 -5 -3 -15 4 -23 16 -8 12 -22 21 -30 21 -42 0 -32 86 20 169 38 60 147 97 231 79 50 -11 135 -79 135 -109 0 -10 18 -48 40 -83 56 -92 95 -179 131 -292 19 -60 41 -110 57 -126 21 -23 23 -30 12 -43 -7 -8 -23 -15 -36 -15 -22 0 -30 17 -26 60 0 3 -9 17 -20 30 l-20 25 6 -25 c3 -14 11 -69 17 -123 12 -107 3 -138 -41 -150 -30 -8 -48 25 -60 113 -6 41 -17 97 -25 124 -8 27 -15 74 -15 103 0 54 -13 71 -24 31 -8 -30 -8 -312 0 -332 3 -9 13 -16 21 -16 10 0 13 5 8 18 -4 9 -9 34 -12 56 -5 33 -4 38 13 34 12 -2 19 -12 20 -28 2 -56 15 -98 37 -118 l23 -22 36 25 c38 26 51 58 48 117 -3 52 -1 55 23 54 30 -2 61 38 53 69 -4 14 -11 25 -16 25 -6 0 -10 9 -10 21 0 11 -4 18 -9 15 -4 -3 -25 45 -46 107 -20 61 -41 116 -46 122 -5 5 -9 19 -9 32 0 13 -4 23 -8 23 -8 0 -30 39 -29 50 1 3 -15 28 -34 56 -28 40 -35 61 -35 93 1 29 -2 38 -8 28 -7 -11 -20 -3 -60 37 -28 28 -62 71 -76 95 -14 24 -44 65 -68 90 l-43 46 26 -39 c14 -22 28 -50 31 -62 3 -13 16 -29 27 -37 12 -8 30 -29 41 -47 l18 -32 -30 16 c-68 35 -180 9 -245 -58 -55 -57 -90 -112 -81 -128 4 -7 3 -10 -1 -5 -5 4 -14 -6 -21 -23 -7 -16 -20 -30 -30 -30 -11 0 -14 5 -9 18 31 73 31 70 0 94 -16 13 -31 22 -32 21 -5 -5 -3 -13 2 -10 2 1 11 -7 19 -18 17 -22 22 -60 7 -51 -5 4 -7 -3 -4 -14 3 -11 1 -20 -3 -20 -18 1 -56 40 -51 53 3 8 1 20 -4 28 -7 11 -9 11 -9 1 0 -31 -17 1 -18 34 -2 56 71 165 100 148 6 -4 8 -3 4 4 -5 9 18 18 73 28 8 2 21 10 30 18 13 14 13 16 1 16 -29 0 -90 -21 -90 -30 0 -6 -6 -10 -14 -10 -24 0 -64 -39 -95 -93 -22 -37 -31 -46 -32 -32 -8 102 38 173 150 228 51 25 78 31 140 34 42 1 81 5 88 7 16 6 73 -13 94 -30 13 -12 16 -12 16 1 0 8 -4 12 -8 10 -4 -3 -9 2 -13 10 -3 8 -1 17 3 19 17 11 102 14 133 5 25 -7 34 -6 41 6 8 15 38 20 51 8 9 -9 46 -11 46 -3 0 8 84 40 108 42 6 1 12 7 12 14 0 16 31 34 57 34 17 0 73 -59 73 -77 0 -4 8 -17 17 -28 15 -19 15 -18 9 15 -7 39 -57 96 -92 104 -34 9 -30 22 17 68 34 33 45 39 67 32 15 -4 35 -6 45 -6 9 0 17 -2 17 -6 0 -4 12 -8 28 -9 15 -1 52 -4 82 -8 30 -3 71 -8 90 -9 49 -5 144 -27 150 -36 8 -12 99 -20 105 -10 13 21 41 8 65 -30 14 -22 30 -40 37 -40 7 0 13 -7 13 -15 0 -8 4 -15 8 -15 5 0 8 -88 8 -195 -1 -107 2 -195 5 -195 3 0 5 -35 6 -77 0 -43 3 -116 7 -163 4 -47 9 -116 12 -155 3 -38 7 -83 9 -100 2 -16 7 -68 10 -115 8 -95 -2 -99 -30 -10 -21 67 -44 114 -52 106 -3 -3 2 -17 11 -31 9 -14 14 -30 11 -35 -3 -6 -2 -10 4 -10 8 0 25 -48 26 -75 0 -5 6 -15 14 -21 30 -24 32 -238 2 -334 -6 -19 -11 -48 -11 -65 0 -16 -7 -43 -15 -58 -8 -16 -9 -25 -3 -21 8 5 9 1 3 -12 -4 -10 -10 -40 -12 -66 -3 -26 -8 -46 -12 -44 -16 10 -2 -47 15 -65 19 -19 22 -19 65 -4 24 9 67 20 94 26 28 5 58 12 68 15 9 3 19 0 21 -8 2 -7 9 -34 16 -59 l12 -47 145 -7 c79 -4 147 -5 150 -1 3 3 -6 38 -19 78 -26 74 -62 219 -73 293 -6 42 -33 162 -65 300 -11 44 -22 98 -26 120 -6 44 -56 271 -81 375 -15 63 -20 116 -26 252 -2 43 1 64 8 61 5 -4 0 5 -11 18 -35 39 -67 111 -70 159 -3 37 -11 52 -43 82 -21 20 -41 34 -45 31 -3 -4 -6 0 -6 8 0 8 -14 20 -31 26 -17 7 -28 17 -24 22 4 7 0 8 -10 5 -9 -4 -15 -10 -13 -14 2 -4 38 -35 81 -69 42 -34 77 -67 77 -74 0 -7 -20 -24 -45 -39 l-45 -27 -25 47 c-14 26 -34 63 -45 82 -11 19 -20 46 -21 60 0 14 -8 37 -17 51 -9 14 -27 41 -40 60 -25 39 -26 75 0 73 17 -2 46 51 35 62 -3 3 -21 -9 -40 -28 -19 -19 -51 -42 -72 -52 -36 -18 -38 -18 -114 7 -42 14 -110 28 -151 32 -41 4 -118 15 -172 26 -53 10 -103 19 -112 19 -9 0 -33 -17 -53 -38z m800 -369 c20 -32 34 -43 52 -43 16 0 25 6 25 15 0 23 26 18 44 -10 20 -31 21 -41 1 -25 -8 7 -15 8 -15 2 0 -5 6 -15 14 -21 14 -11 29 -51 19 -51 -2 0 -20 16 -39 37 -19 20 -37 33 -40 30 -3 -3 11 -21 31 -39 21 -18 44 -47 52 -65 19 -46 25 -41 18 15 -5 38 -4 44 6 28 6 -11 13 -70 14 -140 2 -79 9 -136 19 -165 9 -24 16 -51 15 -60 -1 -9 -7 2 -14 24 -8 23 -14 32 -14 20 -1 -12 8 -45 18 -75 11 -30 22 -72 26 -92 4 -21 11 -38 15 -38 4 0 10 -15 13 -32 11 -63 66 -314 90 -418 39 -164 62 -289 54 -296 -11 -11 -16 -1 -21 39 -3 20 -10 45 -15 55 -6 11 -12 35 -14 55 -3 28 -17 48 -58 89 -30 29 -75 66 -99 83 -25 16 -47 33 -50 36 -3 4 -31 23 -62 43 -42 26 -58 32 -58 22 0 -8 10 -22 23 -31 12 -9 71 -50 130 -92 100 -70 111 -81 137 -137 35 -73 50 -128 50 -178 0 -42 -3 -44 -105 -53 -66 -7 -149 -24 -275 -58 -30 -9 -57 -14 -59 -12 -2 2 0 17 4 32 7 27 7 28 16 6 4 -13 13 -23 20 -23 6 0 9 3 7 8 -2 4 -10 19 -17 33 -11 23 -8 54 24 233 20 114 34 219 31 234 -6 33 -11 93 -31 422 -8 140 -20 325 -25 410 -6 85 -10 182 -10 215 0 56 1 58 13 35 7 -14 26 -44 40 -67z m-1547 -310 c-5 -19 -13 -29 -26 -30 -11 -1 -20 3 -20 9 0 6 3 8 7 5 4 -4 13 7 20 24 16 38 28 32 19 -8z m56 -52 c4 -3 -6 -5 -22 -5 -41 2 -42 3 -35 14 6 10 42 5 57 -9z m418 -423 c0 -5 -7 -8 -15 -8 -15 0 -20 21 -8 33 7 7 23 -11 23 -25z m1500 -658 c0 -16 11 -59 24 -96 14 -37 23 -71 20 -76 -3 -4 -26 -8 -52 -8 -30 0 -42 3 -33 9 29 18 -24 22 -94 7 -29 -6 -31 -4 -48 45 -15 42 -22 50 -38 46 -10 -3 -19 -2 -19 2 0 5 34 11 75 14 42 4 86 12 98 19 12 7 25 13 30 14 4 1 10 2 13 3 3 0 -2 9 -11 18 -16 16 -16 17 0 30 24 17 35 8 35 -27z m-198 -140 c6 -39 -7 -38 -21 1 -15 43 -14 54 3 40 8 -6 16 -25 18 -41z" class=""></path> <path d="M2978 1568 c5 -7 13 -24 17 -38 12 -37 73 -122 80 -110 3 5 1 10 -4 10 -6 0 -10 3 -10 8 4 23 -4 41 -33 72 -17 19 -30 35 -29 35 1 0 -1 8 -4 18 -4 9 -12 17 -17 17 -7 0 -7 -4 0 -12z"></path> <path d="M3085 1360 c-3 -5 -3 -14 0 -20 3 -5 2 -10 -3 -10 -6 0 -8 -9 -5 -20 3 -11 9 -20 14 -20 5 0 18 -9 29 -20 14 -14 20 -16 20 -7 0 8 -9 22 -21 33 -13 12 -18 25 -15 40 6 24 -8 42 -19 24z"></path> <path d="M2900 1341 c0 -5 7 -11 14 -14 10 -4 13 -1 9 9 -6 15 -23 19 -23 5z"></path> <path d="M2937 1304 c6 -3 38 -30 70 -60 63 -61 93 -81 93 -64 0 5 -4 10 -8 10 -4 0 -37 27 -72 60 -35 33 -71 60 -80 59 -9 0 -10 -3 -3 -5z"></path> <path d="M2900 1280 c0 -5 4 -10 9 -10 5 0 12 -9 16 -19 3 -10 15 -21 26 -24 17 -5 16 -1 -8 28 -29 34 -43 43 -43 25z"></path> <path d="M3090 1246 c0 -3 18 -26 40 -51 27 -31 40 -41 40 -29 0 10 -16 33 -36 51 -36 32 -44 38 -44 29z"></path> <path d="M2976 1211 c-3 -5 6 -17 20 -27 15 -11 39 -29 54 -41 15 -13 33 -23 38 -23 20 0 52 -53 52 -84 0 -24 8 -38 30 -54 17 -13 30 -29 30 -37 0 -7 4 -16 9 -19 16 -10 -1 38 -22 61 -12 13 -20 38 -21 60 -1 31 -8 44 -39 70 -22 18 -54 40 -72 48 -18 9 -42 25 -53 35 -12 11 -23 16 -26 11z"></path> <path d="M2902 875 c6 -13 15 -22 20 -19 5 3 31 -14 58 -38 68 -60 80 -70 80 -61 0 13 -47 53 -61 53 -7 0 -9 3 -6 7 9 9 -70 83 -89 83 -11 0 -11 -5 -2 -25z"></path> <path d="M2882 735 c6 -14 18 -25 27 -25 10 0 12 3 5 8 -6 4 -13 15 -17 25 -3 9 -11 17 -16 17 -7 0 -6 -9 1 -25z"></path> <path d="M2854 615 c24 -18 49 -20 44 -2 -3 6 -18 13 -34 15 -28 2 -28 2 -10 -13z"></path> <path d="M3239 583 c-6 -38 12 -83 33 -83 7 0 6 5 0 13 -6 7 -12 28 -14 45 -2 28 -16 46 -19 25z"></path> <path d="M3150 530 c-9 -6 -10 -10 -3 -10 6 0 15 5 18 10 8 12 4 12 -15 0z"></path> <path d="M3064 2482 c3 -5 17 -9 31 -9 32 0 27 6 -10 13 -14 2 -24 1 -21 -4z"></path> <path d="M3840 2460 c0 -6 7 -10 15 -10 8 0 15 2 15 4 0 2 -7 6 -15 10 -8 3 -15 1 -15 -4z"></path> <path d="M3880 2458 c0 -4 4 -8 9 -8 6 0 12 4 15 8 3 5 -1 9 -9 9 -8 0 -15 -4 -15 -9z"></path> <path d="M4140 2460 c-7 -28 -6 -89 0 -85 8 5 11 -6 24 -80 1 -11 6 -27 9 -35 3 -8 8 -31 10 -50 3 -19 10 -47 16 -62 6 -16 8 -28 5 -28 -4 0 -2 -6 4 -12 13 -17 18 -60 9 -75 -5 -8 -4 -13 2 -13 6 0 11 -4 11 -10 0 -5 -6 -10 -14 -10 -11 0 -13 -8 -9 -27 6 -32 6 -28 -2 -118 -3 -38 -8 -99 -10 -135 -2 -36 -5 -67 -5 -70 -3 -11 -6 -59 -8 -132 -2 -64 -6 -81 -23 -97 -19 -18 -20 -19 -3 -17 11 2 26 16 34 32 11 22 15 25 18 12 2 -10 -4 -28 -12 -40 -9 -12 -16 -35 -16 -49 0 -48 -9 -59 -49 -59 -62 0 -193 48 -209 77 -13 23 7 96 24 89 11 -4 13 1 8 20 -8 31 29 71 61 67 18 -3 17 -2 -2 9 -14 6 -23 20 -23 34 0 12 -4 24 -9 26 -5 2 -11 28 -15 58 -3 30 -8 68 -10 83 -4 23 -2 26 10 16 8 -6 14 -17 14 -24 0 -14 25 -27 34 -18 11 11 6 23 -10 23 -8 0 -13 4 -9 9 3 6 -4 15 -15 21 -22 12 -27 35 -7 44 6 3 0 4 -15 1 -16 -3 -28 -1 -28 4 0 21 -40 33 -73 22 -18 -6 -50 -13 -72 -15 l-40 -5 35 30 c58 48 88 59 164 59 87 0 147 10 140 22 -3 5 -31 8 -62 6 -58 -2 -132 16 -132 33 0 5 -9 9 -20 9 -10 0 -32 5 -47 11 -88 35 -105 42 -130 46 -13 2 -23 -1 -23 -7 0 -5 3 -10 8 -11 43 -4 71 -11 108 -28 24 -12 52 -21 62 -21 10 0 25 -9 35 -21 12 -13 13 -19 5 -18 -16 2 -78 -23 -78 -32 0 -10 -133 -4 -151 7 -13 7 -14 20 -9 74 9 80 -3 99 -20 31 -7 -28 -17 -51 -23 -51 -7 0 -4 -7 7 -15 10 -8 16 -21 13 -29 -4 -9 -3 -15 1 -15 22 4 20 -5 -9 -43 -59 -77 -56 -73 -33 -58 11 7 31 28 43 46 25 36 48 46 36 17 -4 -10 -8 -27 -9 -39 -2 -11 -6 -26 -9 -32 -5 -6 0 -8 12 -5 10 3 22 0 25 -6 4 -6 15 -11 25 -11 30 0 45 -55 47 -160 0 -52 4 -102 8 -112 5 -11 2 -18 -13 -23 -27 -8 -27 -25 -1 -25 18 0 20 -5 16 -44 -3 -31 0 -48 10 -57 8 -6 14 -22 14 -36 0 -29 17 -63 31 -63 13 0 0 92 -14 102 -6 3 -11 44 -12 90 -1 46 -6 92 -13 104 -8 15 -8 30 0 56 6 21 8 56 3 84 -7 48 -34 83 -94 124 -20 14 -21 18 -10 43 11 23 18 27 56 27 49 0 51 -14 3 -23 -33 -7 -39 -27 -14 -48 12 -10 31 -11 91 -2 42 6 82 9 88 6 12 -4 19 -30 36 -148 4 -33 11 -77 15 -98 5 -32 3 -40 -19 -57 -15 -12 -29 -38 -36 -67 -7 -27 -20 -70 -31 -98 -28 -74 -63 -206 -56 -212 3 -3 8 8 12 23 4 16 15 46 26 67 l19 39 65 -63 c73 -72 125 -102 170 -97 31 4 36 -4 20 -30 -4 -7 -5 -16 -2 -19 3 -4 -2 -16 -13 -27 -10 -12 -21 -39 -25 -61 -4 -28 -3 -34 4 -20 5 11 9 30 9 43 1 14 5 21 12 16 11 -6 9 -32 -7 -69 -7 -18 -6 -18 9 -6 9 7 17 21 17 29 0 12 3 13 12 4 8 -8 8 -15 0 -25 -9 -10 -9 -16 0 -25 9 -9 9 -12 0 -12 -6 0 -16 -10 -23 -21 -8 -15 -8 -19 0 -15 14 9 15 -19 1 -43 -15 -29 -20 -73 -8 -69 20 7 57 123 68 215 6 48 21 136 32 196 15 79 18 113 11 130 -10 20 -11 19 -17 -18 -10 -56 -16 -67 -59 -114 -36 -40 -39 -41 -75 -31 -74 19 -182 135 -182 195 l0 31 48 -46 c31 -30 65 -51 101 -63 30 -9 60 -25 66 -34 12 -16 15 -14 41 16 40 47 45 56 60 120 18 75 17 111 -2 125 -13 10 -14 21 -5 71 15 90 36 348 35 445 0 50 -9 118 -21 165 -11 44 -28 118 -38 165 -15 77 -32 133 -35 120z m-116 -1154 c18 -7 52 -17 75 -21 35 -6 40 -9 30 -21 -10 -13 -14 -12 -29 1 -9 8 -25 15 -36 15 -22 1 -105 38 -86 39 7 1 28 -5 46 -13z m151 -203 c-11 -38 -12 -43 -13 -80 -2 -24 -6 -31 -17 -27 -10 4 -13 14 -9 33 4 20 3 23 -5 11 -22 -32 -10 1 14 36 14 20 25 44 25 52 0 8 3 13 6 9 4 -3 3 -19 -1 -34z"></path> <path d="M3220 2440 c0 -5 -8 -9 -17 -8 -33 2 -54 -2 -49 -10 8 -14 76 -1 76 14 0 8 -2 14 -5 14 -3 0 -5 -4 -5 -10z"></path> <path d="M3240 2441 c0 -4 11 -6 25 -3 14 2 25 6 25 8 0 2 -11 4 -25 4 -14 0 -25 -4 -25 -9z"></path> <path d="M3120 2400 c8 -5 22 -10 30 -10 13 0 13 1 0 10 -8 5 -22 10 -30 10 -13 0 -13 -1 0 -10z"></path> <path d="M2540 2343 c0 -14 14 -30 38 -42 38 -20 36 -6 -3 23 -19 15 -35 23 -35 19z"></path> <path d="M2518 2245 c4 -27 7 -69 7 -92 0 -22 3 -39 8 -36 4 2 7 1 8 -4 6 -74 19 -133 30 -133 5 0 7 10 5 23 -19 92 -26 131 -36 192 -6 39 -15 77 -20 85 -7 10 -7 -3 -2 -35z"></path> <path d="M2045 2249 c-4 -6 -5 -12 -2 -15 2 -3 7 2 10 11 7 17 1 20 -8 4z"></path> <path d="M1792 2228 c2 -6 15 -15 28 -20 23 -9 23 -8 5 12 -20 22 -39 27 -33 8z"></path> <path d="M2070 2210 c13 -23 20 -26 20 -6 0 8 -7 16 -15 20 -13 4 -14 2 -5 -14z"></path> <path d="M1878 2193 c19 -49 77 -134 129 -193 32 -36 66 -77 75 -90 9 -14 17 -20 17 -13 1 6 -3 15 -9 18 -5 3 -10 15 -10 26 0 11 -4 18 -9 14 -5 -3 -12 4 -16 15 -4 11 -9 19 -13 17 -8 -5 -36 25 -40 42 -1 7 -27 44 -57 81 -30 38 -55 73 -55 79 0 5 -4 13 -10 16 -6 4 -7 -1 -2 -12z"></path> <path d="M3120 2203 c-16 -7 -33 -26 -51 -56 -9 -16 -8 -16 8 -6 16 10 70 70 61 68 -2 0 -10 -3 -18 -6z"></path> <path d="M3232 2199 c22 -13 68 -90 68 -114 0 -13 3 -16 10 -9 25 25 -42 135 -83 134 -7 0 -4 -5 5 -11z"></path> <path d="M1841 2170 c14 -31 19 -36 19 -24 0 6 -7 19 -16 30 -14 18 -14 18 -3 -6z"></path> <path d="M2170 2180 c0 -5 5 -10 11 -10 5 0 7 5 4 10 -3 6 -8 10 -11 10 -2 0 -4 -4 -4 -10z"></path> <path d="M4130 2175 c-11 -13 -10 -18 6 -30 29 -22 34 -18 23 15 -13 35 -13 35 -29 15z"></path> <path d="M1336 2163 c-4 -5 -13 -8 -18 -8 -6 0 -12 -6 -14 -13 -1 -7 0 -8 3 -2 2 5 8 8 12 5 5 -2 17 2 27 10 10 8 14 15 8 15 -6 0 -14 -3 -18 -7z"></path> <path d="M1398 2143 c7 -3 16 -2 19 1 4 3 -2 6 -13 5 -11 0 -14 -3 -6 -6z"></path> <path d="M2215 2129 c-4 -6 -5 -12 -2 -15 2 -3 7 2 10 11 7 17 1 20 -8 4z"></path> <path d="M1430 2110 c0 -5 7 -7 15 -4 8 4 15 8 15 10 0 2 -7 4 -15 4 -8 0 -15 -4 -15 -10z"></path> <path d="M2104 2108 c-4 -6 -3 -8 3 -5 6 4 10 -7 11 -24 1 -48 12 -48 12 -1 0 41 -11 54 -26 30z"></path> <path d="M2890 2110 c0 -5 11 -9 25 -8 14 1 25 6 25 10 0 4 -11 8 -25 8 -14 0 -25 -4 -25 -10z"></path> <path d="M1776 2095 c4 -8 12 -15 19 -15 7 0 15 -4 17 -10 2 -6 9 -6 17 0 12 7 9 10 -12 15 -15 4 -27 11 -27 16 0 5 -4 9 -10 9 -5 0 -7 -7 -4 -15z"></path> <path d="M3510 2096 c0 -2 7 -6 15 -10 8 -3 15 -1 15 4 0 6 -7 10 -15 10 -8 0 -15 -2 -15 -4z"></path> <path d="M1850 2045 c-10 -12 -10 -15 2 -15 8 0 15 7 15 15 0 8 -1 15 -2 15 -2 0 -8 -7 -15 -15z"></path> <path d="M3296 2045 c-9 -26 -7 -32 5 -12 6 10 9 21 6 23 -2 3 -7 -2 -11 -11z"></path> <path d="M2136 2033 c-6 -14 -5 -15 5 -6 7 7 10 15 7 18 -3 3 -9 -2 -12 -12z"></path> <path d="M3066 2027 c3 -10 9 -15 12 -12 3 3 0 11 -7 18 -10 9 -11 8 -5 -6z"></path> <path d="M3435 2010 c-4 -17 -5 -34 -2 -36 3 -3 8 9 12 26 4 17 5 34 2 36 -3 3 -8 -9 -12 -26z"></path> <path d="M1900 1981 c0 -6 4 -13 10 -16 6 -3 7 1 4 9 -7 18 -14 21 -14 7z"></path> <path d="M4130 1972 c0 -5 7 -15 15 -22 8 -7 15 -8 15 -2 0 5 -7 15 -15 22 -8 7 -15 8 -15 2z"></path> <path d="M1557 1950 c-31 -10 -67 -25 -80 -33 -29 -19 -61 -107 -52 -147 11 -49 22 -35 35 43 15 84 29 100 105 122 40 12 63 13 96 6 48 -11 61 -8 32 7 -37 19 -79 20 -136 2z"></path> <path d="M1945 1960 c3 -5 11 -10 16 -10 6 0 7 5 4 10 -3 6 -11 10 -16 10 -6 0 -7 -4 -4 -10z"></path> <path d="M2579 1953 c6 -10 17 -51 26 -90 10 -40 21 -73 26 -73 6 0 5 8 -1 19 -5 11 -10 28 -10 39 0 31 -30 122 -40 122 -7 0 -7 -6 -1 -17z"></path> <path d="M3430 1939 c0 -11 4 -18 10 -14 5 3 7 12 3 20 -7 21 -13 19 -13 -6z"></path> <path d="M1980 1918 c8 -8 21 -20 29 -28 12 -12 11 -10 0 9 -9 14 -22 27 -30 29 -11 3 -11 1 1 -10z"></path> <path d="M3100 1906 c0 -2 7 -6 15 -10 8 -3 15 -1 15 4 0 6 -7 10 -15 10 -8 0 -15 -2 -15 -4z"></path> <path d="M3172 1893 c-11 -11 -4 -50 16 -89 18 -35 30 -69 36 -99 12 -60 17 -78 27 -97 6 -11 8 -26 5 -33 -2 -7 -2 -16 2 -19 8 -9 14 -36 15 -68 0 -15 4 -25 8 -22 5 3 9 -12 9 -33 0 -22 5 -44 11 -50 5 -5 11 -21 13 -34 5 -41 18 -83 30 -98 6 -8 10 -17 8 -20 -2 -3 1 -7 7 -9 6 -2 11 -2 11 0 0 2 -31 128 -69 279 -41 165 -80 296 -95 325 -14 27 -26 51 -26 54 0 3 29 5 64 5 l64 0 6 -65 c5 -64 14 -117 36 -215 6 -27 13 -94 15 -147 2 -54 9 -106 14 -117 6 -11 11 -29 11 -40 0 -12 4 -21 8 -21 4 0 14 -16 21 -35 7 -20 17 -32 23 -29 5 4 6 9 2 13 -5 3 -10 24 -12 46 -2 21 -9 53 -17 70 -7 16 -16 64 -19 105 -8 97 -21 185 -35 236 -17 64 -23 146 -10 138 7 -4 10 -3 7 2 -18 40 -33 70 -36 74 -8 10 -140 5 -150 -7z"></path> <path d="M4171 1894 c0 -11 3 -14 6 -6 3 7 2 16 -1 19 -3 4 -6 -2 -5 -13z"></path> <path d="M4045 1890 c3 -5 8 -10 11 -10 2 0 4 5 4 10 0 6 -5 10 -11 10 -5 0 -7 -4 -4 -10z"></path> <path d="M2040 1861 c0 -5 5 -13 10 -16 6 -3 10 -2 10 4 0 5 -4 13 -10 16 -5 3 -10 2 -10 -4z"></path> <path d="M4050 1861 c0 -13 29 -35 37 -28 7 8 -15 37 -28 37 -5 0 -9 -4 -9 -9z"></path> <path d="M1216 1851 c-4 -5 -2 -12 3 -15 5 -4 12 -2 15 3 4 5 2 12 -3 15 -5 4 -12 2 -15 -3z"></path> <path d="M1535 1830 c-3 -5 -1 -10 4 -10 6 0 11 5 11 10 0 6 -2 10 -4 10 -3 0 -8 -4 -11 -10z"></path> <path d="M3985 1820 c-3 -5 3 -10 14 -10 12 0 21 5 21 10 0 6 -6 10 -14 10 -8 0 -18 -4 -21 -10z"></path> <path d="M1550 1790 c0 -11 5 -20 10 -20 6 0 10 9 10 20 0 11 -4 20 -10 20 -5 0 -10 -9 -10 -20z"></path> <path d="M3578 1793 c6 -2 18 -2 25 0 6 3 1 5 -13 5 -14 0 -19 -2 -12 -5z"></path> <path d="M1870 1786 c0 -2 9 -6 20 -9 11 -3 20 -1 20 4 0 5 -9 9 -20 9 -11 0 -20 -2 -20 -4z"></path> <path d="M1921 1776 c12 -10 59 -15 59 -6 0 5 -14 10 -32 10 -17 0 -29 -2 -27 -4z"></path> <path d="M2630 1765 c0 -5 5 -17 10 -25 5 -8 10 -10 10 -5 0 6 -5 17 -10 25 -5 8 -10 11 -10 5z"></path> <path d="M4080 1751 c0 -5 9 -11 21 -14 16 -4 18 -3 8 9 -13 16 -29 19 -29 5z"></path> <path d="M1477 1743 c-4 -3 -7 -11 -7 -17 0 -6 5 -5 12 2 6 6 9 14 7 17 -3 3 -9 2 -12 -2z"></path> <path d="M1567 1743 c-7 -12 32 -57 41 -48 4 4 1 10 -5 12 -7 3 -13 11 -13 18 0 16 -17 29 -23 18z"></path> <path d="M4093 1717 c4 -10 7 -23 7 -28 0 -5 5 -9 10 -9 16 0 12 26 -7 41 -15 12 -16 12 -10 -4z"></path> <path d="M1592 1645 c0 -16 2 -22 5 -12 2 9 2 23 0 30 -3 6 -5 -1 -5 -18z"></path> <path d="M1641 1634 c0 -11 3 -14 6 -6 3 7 2 16 -1 19 -3 4 -6 -2 -5 -13z"></path> <path d="M2674 1625 c4 -16 12 -34 17 -39 5 -6 5 4 -1 24 -12 42 -25 55 -16 15z"></path> <path d="M4102 1601 c-11 -7 -11 -9 2 -14 10 -4 16 -1 16 8 0 17 -1 17 -18 6z"></path> <path d="M1624 1575 c2 -17 9 -29 15 -27 7 1 10 -2 6 -8 -3 -6 -11 -8 -16 -5 -5 4 -9 0 -9 -7 -4 -95 -1 -256 5 -304 7 -58 6 -62 -14 -69 -13 -4 -28 -1 -36 5 -16 13 -16 12 104 -300 133 -344 202 -455 329 -527 12 -8 23 -9 27 -3 3 5 -9 17 -27 26 -36 18 -50 33 -42 46 3 4 -2 8 -10 8 -9 0 -16 4 -16 10 0 5 -15 25 -33 43 -17 19 -41 51 -52 73 -11 21 -23 41 -26 44 -4 3 -6 19 -5 37 1 34 16 30 19 -4 0 -12 6 -19 13 -16 7 2 15 -5 19 -16 3 -12 11 -21 16 -21 9 0 21 -8 53 -37 8 -7 16 -9 20 -6 3 4 6 1 6 -6 0 -7 5 -11 12 -9 6 2 20 -4 30 -14 10 -10 23 -16 28 -13 6 4 10 1 10 -4 0 -6 14 -11 30 -11 17 0 30 -4 30 -10 0 -5 3 -9 8 -8 22 5 122 -16 122 -26 0 -6 4 -5 9 3 5 7 13 11 18 8 5 -3 15 -2 22 2 7 5 -17 11 -56 14 -97 9 -257 69 -300 113 -8 7 -22 19 -32 26 -10 7 -35 37 -55 66 -21 28 -39 52 -40 52 -1 0 0 -17 2 -37 3 -21 2 -36 -1 -33 -3 3 -8 29 -11 57 -6 59 -22 97 -36 88 -6 -3 -7 0 -5 8 3 7 -6 39 -20 71 -36 81 -74 193 -68 200 3 2 11 2 18 0 7 -3 16 -1 20 5 3 7 -2 11 -14 11 -11 0 -25 9 -31 20 -6 12 -14 110 -17 225 -6 187 -5 205 10 205 11 0 17 8 17 25 0 14 -4 24 -9 23 -5 -2 -17 6 -25 17 -16 19 -16 19 -12 -10z"></path> <path d="M1770 1565 c0 -9 6 -12 15 -9 8 4 12 10 9 15 -8 14 -24 10 -24 -6z"></path> <path d="M2700 1530 c0 -5 5 -10 10 -10 6 0 10 5 10 10 0 6 -4 10 -10 10 -5 0 -10 -4 -10 -10z"></path> <path d="M4116 1505 c12 -53 20 -70 26 -54 3 8 -3 30 -13 49 l-19 35 6 -30z"></path> <path d="M2721 1490 c0 -8 4 -24 9 -35 5 -13 9 -14 9 -5 0 8 -4 24 -9 35 -5 13 -9 14 -9 5z"></path> <path d="M1842 1430 c0 -14 2 -19 5 -12 2 6 2 18 0 25 -3 6 -5 1 -5 -13z"></path> <path d="M3956 1427 c3 -10 9 -15 12 -12 3 3 0 11 -7 18 -10 9 -11 8 -5 -6z"></path> <path d="M2750 1415 c0 -5 5 -17 10 -25 5 -8 10 -10 10 -5 0 6 -5 17 -10 25 -5 8 -10 11 -10 5z"></path> <path d="M3992 1406 c7 -7 19 -11 27 -8 11 4 10 7 -5 13 -29 12 -36 10 -22 -5z"></path> <path d="M1548 1393 c7 -3 16 -2 19 1 4 3 -2 6 -13 5 -11 0 -14 -3 -6 -6z"></path> <path d="M4040 1390 c0 -6 23 -10 52 -10 62 0 60 5 -4 13 -29 4 -48 3 -48 -3z"></path> <path d="M1540 1362 c0 -6 5 -14 10 -17 6 -4 8 -11 5 -16 -4 -5 -1 -9 4 -9 16 0 13 26 -4 40 -9 8 -15 9 -15 2z"></path> <path d="M1685 1340 c3 -5 11 -10 16 -10 6 0 7 5 4 10 -3 6 -11 10 -16 10 -6 0 -7 -4 -4 -10z"></path> <path d="M1688 1293 c7 -3 16 -2 19 1 4 3 -2 6 -13 5 -11 0 -14 -3 -6 -6z"></path> <path d="M1856 1291 c-4 -7 -5 -15 -2 -18 9 -9 19 4 14 18 -4 11 -6 11 -12 0z"></path> <path d="M1860 1230 c0 -5 9 -10 21 -10 11 0 17 5 14 10 -3 6 -13 10 -21 10 -8 0 -14 -4 -14 -10z"></path> <path d="M3750 1226 c0 -2 7 -9 15 -16 13 -11 14 -10 9 4 -5 14 -24 23 -24 12z"></path> <path d="M4087 1203 c-4 -3 -7 -11 -7 -17 0 -6 5 -5 12 2 6 6 9 14 7 17 -3 3 -9 2 -12 -2z"></path> <path d="M3374 1165 c-3 -14 -3 -37 2 -52 4 -16 7 -31 6 -35 -1 -5 3 -8 8 -8 6 0 10 -9 10 -20 0 -11 5 -20 11 -20 6 0 8 6 5 13 -16 38 -37 119 -32 124 3 3 19 -25 36 -62 17 -37 33 -66 35 -63 10 10 -36 124 -55 136 -17 10 -20 9 -26 -13z"></path> <path d="M1683 1173 c9 -2 23 -2 30 0 6 3 -1 5 -18 5 -16 0 -22 -2 -12 -5z"></path> <path d="M1770 1151 c0 -6 5 -11 10 -11 6 0 10 -8 10 -17 0 -10 11 -40 24 -68 14 -27 27 -58 30 -68 3 -10 10 -16 15 -13 11 7 -63 179 -79 184 -5 2 -10 -1 -10 -7z"></path> <path d="M1685 1130 c-4 -6 6 -10 22 -10 22 0 25 2 13 10 -19 12 -27 12 -35 0z"></path> <path d="M3581 1064 c0 -11 3 -14 6 -6 3 7 2 16 -1 19 -3 4 -6 -2 -5 -13z"></path> <path d="M3610 991 c0 -11 4 -22 9 -25 4 -3 6 6 3 19 -5 30 -12 33 -12 6z"></path> <path d="M2757 983 c-4 -7 -3 -22 3 -33 12 -22 50 -46 50 -31 0 5 -9 12 -19 16 -12 3 -21 17 -23 33 -2 18 -6 23 -11 15z"></path> <path d="M1860 944 c0 -8 5 -12 10 -9 6 4 8 11 5 16 -9 14 -15 11 -15 -7z"></path> <path d="M4062 915 c-17 -37 -14 -45 4 -12 9 16 14 31 11 33 -2 2 -9 -7 -15 -21z"></path> <path d="M4090 909 c-6 -11 -10 -26 -8 -33 2 -7 10 2 19 20 18 36 7 48 -11 13z"></path> <path d="M1880 907 c0 -10 7 -25 15 -33 19 -19 19 -7 0 26 -11 20 -14 21 -15 7z"></path> <path d="M3631 904 c0 -11 3 -14 6 -6 3 7 2 16 -1 19 -3 4 -6 -2 -5 -13z"></path> <path d="M3470 874 c0 -7 7 -25 15 -40 8 -16 15 -36 15 -44 0 -8 8 -31 19 -50 10 -19 21 -45 25 -57 6 -18 4 -20 -13 -16 -14 3 -23 20 -31 54 -13 55 -30 74 -30 34 0 -33 24 -90 42 -101 8 -5 20 -18 27 -29 10 -16 11 -17 7 -2 -3 10 1 29 9 41 15 22 13 29 -34 122 -28 55 -51 94 -51 88z"></path> <path d="M4298 784 c170 -45 221 -144 222 -431 0 -57 4 -103 8 -103 5 0 7 24 6 53 -2 28 -5 104 -8 167 -5 125 -14 163 -58 227 -38 57 -129 104 -198 102 -15 0 -4 -6 28 -15z"></path> <path d="M1940 781 c0 -5 5 -13 10 -16 6 -3 10 -2 10 4 0 5 -4 13 -10 16 -5 3 -10 2 -10 -4z"></path> <path d="M4175 780 c5 -8 4 -11 -3 -7 -14 9 -42 -2 -42 -17 0 -8 19 -11 60 -9 32 2 72 -2 87 -8 15 -6 29 -10 31 -9 3 1 23 -16 53 -42 10 -10 24 -18 30 -18 8 0 7 -5 -1 -15 -11 -13 -10 -14 3 -9 16 6 42 -29 33 -45 -3 -5 1 -12 10 -15 24 -9 24 -8 13 21 -20 53 -61 95 -123 124 -40 19 -53 29 -38 29 13 0 37 -7 55 -16 l32 -15 -25 20 c-25 19 -39 24 -134 37 -39 5 -47 4 -41 -6z"></path> <path d="M4413 692 c44 -50 56 -77 64 -147 8 -69 8 -76 -1 -105 -5 -19 -5 -21 3 -10 9 13 11 12 11 -5 0 -12 -5 -26 -12 -33 -9 -9 -9 -12 0 -12 7 0 12 -11 12 -25 0 -14 -4 -25 -10 -25 -5 0 -10 -5 -10 -11 0 -5 5 -7 10 -4 15 9 12 -5 -5 -22 -15 -14 -32 -14 -82 3 -16 6 -15 5 2 -8 11 -8 39 -20 62 -25 55 -14 56 -9 48 149 -9 176 -39 265 -105 307 -19 12 -16 6 13 -27z"></path> <path d="M2008 684 c34 -65 172 -150 279 -172 57 -13 251 -28 243 -19 -5 5 -34 9 -224 32 -84 10 -158 46 -228 110 -24 22 -52 47 -62 55 -18 14 -19 14 -8 -6z"></path> <path d="M2318 683 c7 -3 16 -2 19 1 4 3 -2 6 -13 5 -11 0 -14 -3 -6 -6z"></path> <path d="M2687 564 c-23 -24 32 -95 71 -93 11 0 12 2 5 6 -7 2 -13 11 -13 19 0 7 -6 11 -13 8 -7 -2 -22 4 -32 16 -10 11 -13 20 -7 20 6 0 14 -5 17 -10 4 -6 12 -4 21 5 9 8 12 20 9 26 -5 6 -11 4 -20 -7 -11 -16 -13 -16 -22 0 -5 9 -12 13 -16 10z"></path> <path d="M3566 540 c3 -14 10 -29 15 -34 14 -16 10 6 -7 34 l-15 25 7 -25z"></path> <path d="M2020 536 c0 -2 7 -7 16 -10 8 -3 12 -2 9 4 -6 10 -25 14 -25 6z"></path> <path d="M2624 489 c-3 -5 6 -9 20 -9 31 0 34 6 6 13 -11 3 -23 1 -26 -4z"></path> <path d="M2787 486 c-7 -18 172 -33 200 -17 19 11 6 12 -112 13 -22 0 -50 4 -62 9 -15 5 -23 4 -26 -5z"></path> <path d="M3590 451 c0 -4 -44 -6 -97 -3 -54 2 -96 2 -93 -1 6 -6 113 -15 272 -22 212 -10 349 -48 412 -114 37 -38 84 -134 91 -186 7 -43 9 -45 39 -44 27 0 29 2 11 10 -23 12 -68 138 -59 166 5 15 4 16 -5 3 -10 -13 -12 -13 -21 0 -5 8 -7 23 -4 34 4 10 2 16 -3 13 -5 -3 -27 13 -49 35 -21 22 -67 53 -102 69 -64 30 -88 37 -62 18 11 -8 7 -9 -20 -5 -44 6 -76 13 -102 22 -14 4 -18 2 -14 -5 5 -7 -3 -11 -21 -11 -19 0 -24 3 -14 9 23 15 -3 20 -48 10 -27 -6 -55 -6 -77 0 -19 5 -34 6 -34 2z"></path> <path d="M2350 426 c0 -8 51 -13 56 -5 3 5 -9 9 -25 9 -17 0 -31 -2 -31 -4z"></path> <path d="M2425 418 c3 -8 25 -13 63 -14 99 -3 177 -10 189 -17 6 -4 15 -2 18 4 4 5 14 7 24 4 16 -7 180 -15 368 -18 57 -1 103 -5 103 -8 0 -3 23 -5 50 -5 28 1 50 -2 50 -7 0 -4 6 -5 13 0 14 9 118 4 132 -6 6 -4 21 -5 35 -1 14 3 45 3 69 -2 24 -4 95 -9 158 -9 62 -1 116 -6 119 -11 3 -4 9 -6 14 -3 17 11 139 -38 170 -68 35 -35 71 -82 66 -88 -2 -2 5 -13 16 -24 19 -20 20 -20 12 10 -11 44 -48 100 -86 128 -74 56 -151 73 -363 82 -82 3 -244 12 -360 20 -221 15 -354 21 -650 31 -99 3 -188 8 -197 10 -12 4 -16 1 -13 -8z"></path> <path d="M1921 323 c5 -21 9 -41 9 -45 0 -5 7 -8 16 -8 13 0 14 3 5 14 -6 8 -11 18 -9 22 3 14 -13 54 -22 54 -4 0 -4 -17 1 -37z"></path> <path d="M4145 340 c3 -5 8 -10 11 -10 2 0 4 5 4 10 0 6 -5 10 -11 10 -5 0 -7 -4 -4 -10z"></path> <path d="M4173 333 c4 -3 -1 -15 -10 -26 -18 -19 -18 -20 14 -3 18 9 45 17 60 17 l28 1 -30 8 c-39 10 -70 12 -62 3z"></path> <path d="M2047 324 c-4 -4 -4 -11 -1 -15 7 -12 41 -11 48 0 4 5 -2 8 -11 7 -10 -2 -21 1 -24 6 -3 4 -8 5 -12 2z"></path> <path d="M4281 317 c11 -13 79 -37 79 -28 0 5 -11 12 -24 15 -13 3 -32 9 -43 13 -10 3 -16 3 -12 0z"></path> <path d="M4040 281 c0 -6 4 -13 10 -16 6 -3 7 1 4 9 -7 18 -14 21 -14 7z"></path> <path d="M1943 244 c-3 -8 -1 -20 5 -26 8 -8 9 -4 5 12 -5 17 -3 21 7 15 9 -5 11 -4 6 3 -10 16 -15 15 -23 -4z"></path> <path d="M4510 230 c0 -5 9 -14 20 -20 11 -6 20 -8 20 -5 0 3 12 -1 28 -8 15 -8 35 -13 45 -12 9 2 17 0 17 -4 0 -4 8 -7 18 -8 24 -2 299 -93 331 -109 14 -8 34 -14 44 -14 10 0 37 -9 60 -21 23 -11 67 -22 97 -25 l55 -5 -50 21 c-27 12 -81 32 -120 45 -38 13 -135 46 -215 74 -116 41 -322 101 -345 101 -3 0 -5 -4 -5 -10z"></path> <path d="M1953 184 c0 -8 6 -14 14 -14 7 0 13 4 13 9 0 5 -6 11 -13 14 -8 3 -14 -1 -14 -9z"></path> <path d="M4104 172 c4 -7 10 -33 13 -59 3 -27 9 -55 14 -63 9 -15 8 -8 -6 82 -3 21 -11 40 -17 44 -7 4 -8 3 -4 -4z"></path> <path d="M1970 140 c0 -5 5 -10 11 -10 5 0 7 5 4 10 -3 6 -8 10 -11 10 -2 0 -4 -4 -4 -10z"></path> <path d="M2011 54 c0 -11 3 -14 6 -6 3 7 2 16 -1 19 -3 4 -6 -2 -5 -13z"></path> <path d="M4300 60 c0 -5 7 -7 15 -4 8 4 15 8 15 10 0 2 -7 4 -15 4 -8 0 -15 -4 -15 -10z"></path> <path d="M4180 30 c0 -39 17 -39 18 0 0 17 -4 30 -9 30 -5 0 -9 -13 -9 -30z"></path> <path d="M4358 43 c7 -3 16 -2 19 1 4 3 -2 6 -13 5 -11 0 -14 -3 -6 -6z"></path> <path d="M4398 33 c7 -3 16 -2 19 1 4 3 -2 6 -13 5 -11 0 -14 -3 -6 -6z"></path> <path d="M4445 20 c11 -5 27 -9 35 -9 9 0 8 4 -5 9 -11 5 -27 9 -35 9 -9 0 -8 -4 5 -9z"></path> </g> </svg>