<svg width="24" height="24" viewBox="0 0 24 24" fill="currentColor" xmlns="http://www.w3.org/2000/svg">
<path d="M17.05 20.28c-.96.00-1.76-.62-2.85-.62-1.11.00-1.83.61-2.83.61-1.68.00-4.04-2.58-4.04-5.83.00-3.32 2.15-5.07 4.19-5.07 1.05.00 1.9.67 2.68.67.75.00 1.76-.71 2.97-.71 1.25.00 2.25.59 2.87 1.48-2.56 1.43-2.15 4.88.54 6.03-.68 1.63-1.64 3.44-3.53 3.44zm-3-12.04c.00-2.31 1.93-4.22 4.31-4.22.04.57-.17 1.15-.52 1.64-1.05 1.49-2.73 2.58-3.79 2.58-.00-1.07.27-2.07.67-.35-.00.11-.00.22-.00.35z"/>
</svg>
